<svg width="140" height="140" viewBox="0 0 140 140" fill="none" xmlns="http://www.w3.org/2000/svg">
<circle cx="70" cy="70" r="70" fill="white"/>
<path d="M87.25 79.6885V112.734L78.4525 106.277L70 100.074L61.5475 106.277L52.75 112.734V79.6885H87.25Z" fill="#78ACE5"/>
<path d="M78.4519 81.2417V106.277L69.9994 100.074L61.5469 106.277V81.2417H78.4519Z" fill="#F6B0B0"/>
<path d="M70 88.7657C86.9828 88.7657 100.75 74.9985 100.75 58.0157C100.75 41.033 86.9828 27.2657 70 27.2657C53.0172 27.2657 39.25 41.033 39.25 58.0157C39.25 74.9985 53.0172 88.7657 70 88.7657Z" fill="#F7DB4D"/>
<path d="M70 82.7657C83.669 82.7657 94.75 71.6848 94.75 58.0157C94.75 44.3467 83.669 33.2657 70 33.2657C56.331 33.2657 45.25 44.3467 45.25 58.0157C45.25 71.6848 56.331 82.7657 70 82.7657Z" fill="#F7B11F"/>
<path d="M71.5526 42.199L74.2099 50.3778C74.3168 50.705 74.5245 50.99 74.8032 51.1921C75.0819 51.3941 75.4174 51.5029 75.7616 51.5028H84.3619C84.7065 51.5026 85.0423 51.6115 85.3211 51.814C85.6 52.0165 85.8076 52.302 85.9141 52.6298C86.0206 52.9575 86.0206 53.3105 85.9141 53.6383C85.8076 53.966 85.6 54.2515 85.3211 54.454L78.3634 59.509C78.0848 59.7116 77.8774 59.9972 77.7709 60.3248C77.6645 60.6524 77.6645 61.0054 77.7709 61.333L80.4259 69.5155C80.5321 69.8432 80.5319 70.1961 80.4253 70.5236C80.3187 70.8512 80.1112 71.1366 79.8325 71.339C79.5538 71.5415 79.2182 71.6505 78.8738 71.6506C78.5293 71.6507 78.1937 71.5418 77.9149 71.3395L70.9579 66.2845C70.6791 66.0819 70.3433 65.9728 69.9986 65.9728C69.654 65.9728 69.3182 66.0819 69.0394 66.2845L62.0824 71.3395C61.8036 71.5405 61.4685 71.6483 61.1248 71.6476C60.7811 71.6468 60.4464 71.5375 60.1685 71.3353C59.8906 71.1331 59.6837 70.8482 59.5773 70.5215C59.4709 70.1947 59.4704 69.8426 59.5759 69.5155L62.2309 61.336C62.3373 61.0084 62.3373 60.6554 62.2308 60.3278C62.1244 60.0002 61.917 59.7146 61.6384 59.512L54.6806 54.457C54.4018 54.2545 54.1942 53.969 54.0877 53.6412C53.9812 53.3135 53.9812 52.9605 54.0877 52.6328C54.1942 52.305 54.4018 52.0195 54.6806 51.817C54.9595 51.6145 55.2953 51.5056 55.6399 51.5058H64.2394C64.5837 51.5059 64.9193 51.3972 65.1982 51.1951C65.477 50.9931 65.6848 50.708 65.7919 50.3808L68.4491 42.202C68.5555 41.8744 68.7628 41.5889 69.0413 41.3862C69.3199 41.1836 69.6554 41.0743 69.9998 41.074C70.3442 41.0736 70.68 41.1823 70.9589 41.3844C71.2378 41.5865 71.4456 41.8716 71.5526 42.199Z" fill="#F7DB4D"/>
</svg>
