<svg width="140" height="140" viewBox="0 0 140 140" fill="none" xmlns="http://www.w3.org/2000/svg">
<circle cx="70" cy="70" r="70" fill="white"/>
<path fill-rule="evenodd" clip-rule="evenodd" d="M31.0132 69.3818C28.933 82.3028 33.2819 94.9902 42.1451 103.853L50.3944 95.6041C44.1326 89.3423 41.0604 80.3789 42.5299 71.2503L31.0132 69.3818Z" fill="#FA6E85"/>
<path fill-rule="evenodd" clip-rule="evenodd" d="M70.2504 36C57.3345 36 45.8596 42.162 38.5996 51.7049L47.8895 58.7617C53.7299 51.0851 63.246 46.7206 73.3704 47.8398L74.6666 36.2456C73.2162 36.0852 71.7434 36 70.2504 36Z" fill="#88C8FE"/>
<path fill-rule="evenodd" clip-rule="evenodd" d="M109.753 80.1536C111.32 65.9509 105.263 52.5905 94.5655 44.3057L87.4287 53.534C94.9858 59.387 99.2656 68.8264 98.1584 78.8602L109.753 80.1536Z" fill="#19CFBA"/>
<path fill-rule="evenodd" clip-rule="evenodd" d="M98.048 104.152C105.42 96.937 109.997 86.8772 109.997 75.7471H98.3302C98.3302 83.6104 95.0969 90.7176 89.8887 95.8152L98.048 104.152Z" fill="#14B5A2"/>
<path fill-rule="evenodd" clip-rule="evenodd" d="M98.6554 47.9486C91.44 40.5766 81.3802 36 70.25 36V47.6664C78.1133 47.6664 85.2205 50.8997 90.3181 56.1079L98.6554 47.9486Z" fill="#4187B5"/>
<path fill-rule="evenodd" clip-rule="evenodd" d="M42.4515 47.3418C35.0796 54.5572 30.5029 64.617 30.5029 75.7472H42.1691C42.1691 67.8838 45.4026 60.7766 50.6106 55.679L42.4515 47.3418Z" fill="#FFE177"/>
<path fill-rule="evenodd" clip-rule="evenodd" d="M102.754 61.9473L73.9443 66.8357L78.1869 77.7697L102.754 61.9473Z" fill="#847784"/>
<path d="M81.305 86.8119C87.4159 80.701 87.4159 70.7932 81.305 64.6822C75.194 58.5712 65.2862 58.5712 59.1752 64.6822C53.0643 70.7932 53.0643 80.701 59.1752 86.8119C65.2862 92.9229 75.194 92.9229 81.305 86.8119Z" fill="#FFBF31"/>
<path d="M70.2502 88.0853C77.0643 88.0853 82.5883 82.5614 82.5883 75.7473C82.5883 68.9331 77.0643 63.4092 70.2502 63.4092C63.4361 63.4092 57.9121 68.9331 57.9121 75.7473C57.9121 82.5614 63.4361 88.0853 70.2502 88.0853Z" fill="#FFE177"/>
<path fill-rule="evenodd" clip-rule="evenodd" d="M75.8757 70.248C74.456 69.6319 72.4491 69.1316 70.2913 69.1115C69.1829 69.1013 68.0744 69.3214 67.1764 69.6691C65.5796 70.2729 64.7483 71.1938 64.6789 72.4298C64.7204 73.5848 65.5522 74.5052 67.1764 75.1905C68.0694 75.5501 69.221 75.7468 70.2913 75.7481C71.4106 75.7435 72.4439 75.9411 73.4061 76.3057C75.0035 76.9588 75.8227 77.8838 75.9036 79.0664C75.8089 80.2729 74.9911 81.1988 73.4061 81.8272C70.7244 82.876 67.1497 82.3082 64.5947 81.2482L75.8757 70.248ZM75.8757 70.248L64.5947 81.2482C67.1497 82.3082 70.7244 82.876 73.4061 81.8272C74.9912 81.1988 75.8089 80.2729 75.9036 79.0664C75.8227 77.8838 75.0035 76.9588 73.4061 76.3057C72.4439 75.9411 71.4106 75.7437 70.2913 75.7481C69.221 75.7468 68.0694 75.5501 67.1764 75.1905C65.5522 74.5052 64.7204 73.5848 64.6789 72.4298C64.7483 71.1938 65.5794 70.2731 67.1764 69.6691C68.0744 69.3214 69.1829 69.1013 70.2913 69.1115C72.4491 69.1316 74.456 69.6319 75.8757 70.248ZM70.2493 82.3844V84.4193L70.3523 82.3844H70.2493Z" fill="#685E68"/>
<path fill-rule="evenodd" clip-rule="evenodd" d="M76.3667 69.1126C76.9939 69.3833 77.2828 70.111 77.0121 70.7381C76.7414 71.3652 76.0137 71.6541 75.3866 71.3834C73.6332 70.6247 70.9124 70.1065 68.8518 70.4774C68.0278 70.6258 66.8106 71.0476 66.2735 71.6415C65.839 72.1217 65.8016 72.6584 66.2525 73.1569C66.5393 73.4741 66.9947 73.7663 67.6181 74.0335L67.619 74.0311C69.9508 74.9254 70.9944 74.0696 73.8438 75.1463C74.7676 75.4954 75.6381 76.0931 76.1464 76.658C76.7525 77.3314 77.082 78.1078 77.1419 78.984C77.1459 79.0446 77.1454 79.1045 77.1409 79.1634L77.1419 79.1636C76.9952 81.0351 75.6461 82.294 73.8531 82.9811L73.8535 82.9821C73.1154 83.2667 72.3406 83.4532 71.5345 83.5476L71.4923 84.4194C71.4923 85.1055 70.9362 85.6616 70.2501 85.6616C69.5641 85.6616 69.008 85.1055 69.008 84.4194V83.567C67.3213 83.4329 65.6982 83.0484 64.1201 82.3934C63.4878 82.1307 63.1879 81.4053 63.4506 80.773C63.7132 80.1406 64.4388 79.8408 65.0711 80.1035C66.7574 80.8033 68.546 81.1424 70.3531 81.1424V81.1459C71.1875 81.1574 72.204 80.9645 72.9607 80.6726L72.9611 80.6735C73.5634 80.4337 74.0059 80.1533 74.293 79.8341C74.4977 79.6065 74.6185 79.3473 74.6581 79.0573C74.6211 78.7871 74.5033 78.5401 74.3028 78.3173C73.4013 77.3156 71.5469 76.993 70.2503 76.9852C69.0407 76.9779 67.8315 76.7705 66.736 76.3503L66.7373 76.3469C64.9454 75.6322 63.5784 74.4052 63.446 72.5411C63.4408 72.4824 63.4397 72.4225 63.443 72.3619C63.599 69.5502 66.5038 68.2527 69.0084 67.9532V67.0771C69.0084 66.3911 69.5645 65.835 70.2505 65.835C70.9366 65.835 71.4926 66.3911 71.4926 67.0771V67.9372C73.2327 68.0809 74.8405 68.4503 76.3667 69.1126Z" fill="#D1991F"/>
</svg>
