<svg preserveAspectRatio="none" width="100%" height="100%" overflow="visible" style="display: block;" viewBox="0 0 29 27" fill="none" xmlns="http://www.w3.org/2000/svg">
<g id="Group">
<path id="Vector" d="M21.1234 1.10909L26.9505 10.0864C27.936 11.6047 28.416 13.3972 28.3188 15.2112L28.1307 18.7428L16.4443 26.3285L12.9027 25.4864C10.7615 24.9796 8.89453 23.665 7.69508 21.8171L4.76119 17.2971C4.18609 16.4111 3.9256 15.3591 4.02248 14.3135L4.46165 12.4464L4.66339 11.586L4.66529 11.5771L0.421237 4.95205C-0.350284 3.76344 -0.0440629 2.10569 1.18662 1.39891C1.72824 1.08579 2.33663 1.00566 2.90152 1.13058C3.51628 1.26136 4.07286 1.6219 4.44111 2.18923L8.67805 8.8033C7.94515 7.67418 8.27095 6.16495 9.40017 5.43198C9.96206 5.06726 10.6226 4.96097 11.232 5.09527C11.8433 5.22078 12.3999 5.58133 12.768 6.14853L12.491 5.72181C11.7195 4.5332 12.0257 2.87529 13.2564 2.16867C13.7981 1.85552 14.4065 1.7754 14.9713 1.90018C15.5826 2.02569 16.1392 2.38624 16.5073 2.95345L17.0334 3.76388C16.3005 2.63476 16.6263 1.12551 17.7555 0.392536C18.3174 0.0278179 18.978 -0.0784721 19.5873 0.0558241C20.1986 0.181332 20.7552 0.541885 21.1234 1.10909Z" fill="var(--fill-0, #FFAF93)"/>
</g>
</svg>
