<svg preserveAspectRatio="none" width="100%" height="100%" overflow="visible" style="display: block;" viewBox="0 0 28 34" fill="none" xmlns="http://www.w3.org/2000/svg">
<g id="Group">
<path id="Vector" d="M27.5312 20.5808V22.5669C27.5312 23.2497 27.2905 23.9105 26.8513 24.4333L22.1381 30.0443C21.699 30.5671 21.4582 31.228 21.4582 31.9107V33.4083H3.93331V29.3047C3.93331 28.7685 3.77459 28.2443 3.47713 27.7981L0.456507 23.2671C0.159056 22.821 0.000329061 22.2967 0.000329061 21.7605V8.86579C0.000329061 7.71715 0.423162 6.60871 1.18817 5.7519L5.64209 0.763516C6.50804 -0.206358 8.00753 -0.259481 8.93996 0.646676L8.96079 0.666919C10.6337 2.29274 10.8769 4.89338 9.53437 6.80117L7.28792 9.99346C7.28792 9.99346 13.0768 13.7174 12.8454 20.5808H27.5312Z" fill="var(--fill-0, #FFAF93)"/>
</g>
</svg>
