<svg preserveAspectRatio="none" width="100%" height="100%" overflow="visible" style="display: block;" viewBox="0 0 18 26" fill="none" xmlns="http://www.w3.org/2000/svg">
<g id="Group">
<path id="Vector" d="M17.4522 24.5396L16.4507 25.1889L12.9101 24.3579C10.7669 23.8465 8.89903 22.5337 7.70107 20.6789L4.75705 16.1655C4.18823 15.2726 3.93054 14.2329 4.02514 13.1751L4.4645 11.3054L4.67504 10.45L4.6601 10.4452L0.42144 3.81486C-0.348638 2.62602 -0.046169 0.975841 1.18799 0.269828C1.42985 0.133724 1.67706 0.0321552 1.93474 0C1.07876 0.811737 0.947447 2.18741 1.60678 3.20851L5.86038 9.84364L5.64993 10.6991L5.21045 12.5688C5.1208 13.6117 5.37354 14.6663 5.95731 15.564L8.8865 20.0726C10.0844 21.9274 11.9522 23.2401 14.0956 23.7515L17.4522 24.5396Z" fill="var(--fill-0, #EE8778)"/>
</g>
</svg>
