<svg preserveAspectRatio="none" width="100%" height="100%" overflow="visible" style="display: block;" viewBox="0 0 21 14" fill="none" xmlns="http://www.w3.org/2000/svg">
<g id="Group">
<path id="Vector" d="M20.8722 9.64419C20.8722 11.744 19.1673 13.4 17.1164 13.4H3.75575C1.69981 13.4 -8.5089e-05 11.7308 -8.5089e-05 9.64419C-8.5089e-05 7.74756 1.40478 6.17607 3.23353 5.92322V5.86229C3.23353 3.86636 5.18145 2.45196 7.085 3.07699C7.83789 1.27093 9.62225 0.000120095 11.7025 0.000120095C14.4583 0.000120095 16.703 2.23428 16.703 5.0006C16.703 5.31393 16.6768 5.62293 16.6203 5.91887C16.7856 5.89711 16.951 5.8884 17.1164 5.8884C19.1727 5.8884 20.8722 7.55256 20.8722 9.64419Z" fill="var(--fill-0, #65B9FF)"/>
</g>
</svg>
