<svg preserveAspectRatio="none" width="100%" height="100%" overflow="visible" style="display: block;" viewBox="0 0 9 34" fill="none" xmlns="http://www.w3.org/2000/svg">
<g id="Group">
<path id="Vector" d="M2.30089 8.87335V21.7702C2.30089 22.3001 2.45223 22.8299 2.75499 23.2689L5.78244 27.7949C6.07005 28.249 6.23654 28.7788 6.23654 29.3086V33.4158H3.93565V29.3086C3.93565 28.7788 3.76916 28.249 3.4664 27.7949L0.4541 23.2689C0.151336 22.8299 0 22.3001 0 21.7702V8.87335C0 7.7229 0.423795 6.61791 1.18066 5.75508L5.63102 0.759799C6.38788 -0.0728219 7.59893 -0.224159 8.50713 0.32076C8.29519 0.426732 8.11355 0.578069 7.94706 0.759799L3.48155 5.75508C2.72469 6.61791 2.30089 7.7229 2.30089 8.87335Z" fill="var(--fill-0, #EE8778)"/>
</g>
</svg>
