<svg width="140" height="140" viewBox="0 0 140 140" fill="none" xmlns="http://www.w3.org/2000/svg">
<circle cx="70" cy="70" r="70" fill="white"/>
<path d="M76.026 84.6313H50.8304C48.1217 84.6313 45.9258 82.4354 45.9258 79.7267V40.9115C45.9258 38.2027 48.1217 36.0068 50.8304 36.0068H76.026C78.7348 36.0068 80.9307 38.2027 80.9307 40.9115V79.7267C80.9307 82.4354 78.7348 84.6313 76.026 84.6313Z" fill="#5B5E8B"/>
<path d="M56.0942 84.636H51.1746C48.2833 84.636 45.9219 82.2746 45.9219 79.3833V41.2527C45.9219 38.3614 48.2833 36 51.1746 36H56.0942C53.2029 36 50.8415 38.3614 50.8415 41.2527V79.3833C50.8415 82.2746 53.2029 84.636 56.0942 84.636Z" fill="#312E4B"/>
<path d="M49.71 76.8759V41.1597C49.71 40.4038 50.3228 39.791 51.0787 39.791H75.7775C76.5334 39.791 77.1462 40.4038 77.1462 41.1597V76.8759C77.1462 77.6319 76.5334 78.2447 75.7775 78.2447H51.0787C50.3228 78.2447 49.71 77.6319 49.71 76.8759Z" fill="#DEDDFF"/>
<path d="M68.3473 84.6305V86.6166C68.3473 87.2993 68.1066 87.9602 67.6674 88.483L62.9542 94.094C62.515 94.6168 62.2743 95.2777 62.2743 95.9604V97.458H44.7494V93.3544C44.7494 92.8182 44.5907 92.2939 44.2932 91.8477L41.2726 87.3168C40.9751 86.8706 40.8164 86.3464 40.8164 85.8101V72.9155C40.8164 71.7668 41.2392 70.6584 42.0043 69.8016L46.4582 64.8132C47.3241 63.8433 48.8236 63.7902 49.756 64.6963L49.7769 64.7166C51.4498 66.3424 51.693 68.943 50.3505 70.8508L48.104 74.0431C48.104 74.0431 53.8929 77.767 53.6615 84.6305H68.3473Z" fill="#FFAF93"/>
<path d="M53.6613 84.6305C53.6673 84.4543 53.6531 84.2892 53.6514 84.1172V85.9878H68.3471V84.6305H53.6613Z" fill="#EE8778"/>
<path d="M43.1212 72.9202V85.8171C43.1212 86.347 43.2725 86.8767 43.5753 87.3158L46.6028 91.8418C46.8904 92.2959 47.0569 92.8257 47.0569 93.3555V97.4626H44.756V93.3555C44.756 92.8257 44.5895 92.2959 44.2867 91.8418L41.2744 87.3158C40.9716 86.8767 40.8203 86.347 40.8203 85.8171V72.9202C40.8203 71.7698 41.2441 70.6648 42.001 69.802L46.4513 64.8067C47.2082 63.9741 48.4192 63.8227 49.3274 64.3676C49.1155 64.4736 48.9339 64.6249 48.7674 64.8067L44.3019 69.802C43.545 70.6648 43.1212 71.7698 43.1212 72.9202Z" fill="#EE8778"/>
<path d="M42.3545 103.879H65.0131V98.9387C65.0131 97.285 63.6725 95.9443 62.0187 95.9443H45.3488C43.6951 95.9443 42.3545 97.285 42.3545 98.9387V103.879Z" fill="#65B9FF"/>
<path d="M56.8857 95.9443C58.6568 95.9443 60.0948 97.3824 60.0948 99.1534V103.886H65.0144V99.1534C65.0144 97.3824 63.5764 95.9443 61.8054 95.9443H56.8857Z" fill="#3E7FFF"/>
<path d="M67.0595 82.4878H59.7961C59.2415 82.4878 58.792 82.0382 58.792 81.4837V81.2844C58.792 80.7298 59.2415 80.2803 59.7961 80.2803H67.0595C67.614 80.2803 68.0636 80.7298 68.0636 81.2844V81.4837C68.0636 82.0382 67.614 82.4878 67.0595 82.4878Z" fill="#312E4B"/>
<path d="M73.8645 51.5904C73.8645 53.6902 72.1596 55.3461 70.1087 55.3461H56.748C54.6921 55.3461 52.9922 53.677 52.9922 51.5904C52.9922 49.6937 54.3971 48.1222 56.2258 47.8694V47.8085C56.2258 45.8125 58.1737 44.3981 60.0773 45.0232C60.8302 43.2171 62.6145 41.9463 64.6948 41.9463C67.4505 41.9463 69.6952 44.1804 69.6952 46.9468C69.6952 47.2601 69.6691 47.5691 69.6126 47.865C69.7779 47.8433 69.9432 47.8346 70.1087 47.8346C72.165 47.8346 73.8645 49.4987 73.8645 51.5904Z" fill="#65B9FF"/>
<path d="M71.2716 64.8489H55.5851C54.1531 64.8489 52.9922 63.688 52.9922 62.256C52.9922 60.824 54.1531 59.6631 55.5851 59.6631H71.2716C72.7036 59.6631 73.8645 60.824 73.8645 62.256C73.8645 63.688 72.7036 64.8489 71.2716 64.8489Z" fill="#C6C6F7"/>
<path d="M57.1285 64.8489H55.5851C54.1531 64.8489 52.9922 63.688 52.9922 62.256C52.9922 60.824 54.1531 59.6631 55.5851 59.6631H57.1285C58.5605 59.6631 59.7214 60.824 59.7214 62.256C59.7214 63.688 58.5605 64.8489 57.1285 64.8489Z" fill="#46CC6B"/>
<path d="M69.4529 72.2702C69.4529 73.727 68.2648 74.915 66.8081 74.915H60.1467C58.6759 74.915 57.502 73.727 57.502 72.2702C57.502 70.7994 58.6759 69.6113 60.1467 69.6113H66.8081C68.2648 69.6113 69.4529 70.7994 69.4529 72.2702Z" fill="#E83D62"/>
<path d="M87.9342 70.9988L93.7614 79.9761C94.7468 81.4943 95.2269 83.2869 95.1296 85.1009L94.9416 88.6325L83.2551 96.2181L79.7136 95.376C77.5724 94.8693 75.7054 93.5546 74.5059 91.7068L71.572 87.1868C70.9969 86.3008 70.7364 85.2488 70.8333 84.2031L71.2725 82.3361L71.4742 81.4757L71.4761 81.4667L67.2321 74.8417C66.4606 73.6531 66.7668 71.9954 67.9975 71.2886C68.5391 70.9755 69.1475 70.8953 69.7124 71.0202C70.3271 71.151 70.8837 71.5116 71.252 72.0789L75.4889 78.693C74.756 77.5638 75.0818 76.0546 76.211 75.3216C76.7729 74.9569 77.4335 74.8506 78.0428 74.9849C78.6542 75.1104 79.2107 75.471 79.5789 76.0382L79.3019 75.6115C78.5304 74.4229 78.8365 72.765 80.0673 72.0583C80.6089 71.7452 81.2173 71.6651 81.7821 71.7898C82.3935 71.9154 82.95 72.2759 83.3182 72.8431L83.8442 73.6535C83.1113 72.5244 83.4372 71.0152 84.5664 70.2822C85.1283 69.9175 85.7888 69.8112 86.3982 69.9455C87.0095 70.071 87.566 70.4316 87.9342 70.9988Z" fill="#FFAF93"/>
<path d="M84.2598 95.564L83.2583 96.2133L79.7178 95.3823C77.5745 94.8709 75.7066 93.5581 74.5087 91.7033L71.5647 87.1899C70.9958 86.297 70.7382 85.2573 70.8328 84.1995L71.2721 82.3298L71.4827 81.4744L71.4677 81.4696L67.2291 74.8393C66.459 73.6504 66.7614 72.0003 67.9956 71.2942C68.2375 71.1581 68.4847 71.0566 68.7424 71.0244C67.8864 71.8362 67.7551 73.2118 68.4144 74.2329L72.668 80.868L72.4575 81.7235L72.0181 83.5933C71.9284 84.6361 72.1812 85.6907 72.7649 86.5885L75.6941 91.097C76.892 92.9518 78.7598 94.2646 80.9032 94.776L84.2598 95.564Z" fill="#EE8778"/>
<path d="M80.2339 71.9727C79.2849 72.7784 79.1167 74.1438 79.7679 75.147C80.5079 76.2871 81.1777 77.4727 81.7755 78.6895L79.2276 75.4977C78.5144 74.3989 78.7946 72.8762 79.9497 72.1264C80.0416 72.0668 80.1369 72.0126 80.2339 71.9727Z" fill="#EE8778"/>
<path d="M76.4952 75.168C75.5797 75.9463 75.3558 77.305 76.0292 78.3423L76.1765 78.5693C76.941 79.7471 77.6388 80.9759 78.254 82.2431L75.4889 78.693C75.1418 78.1583 75.0314 77.5387 75.1349 76.9647C75.2412 76.3121 75.6167 75.7075 76.211 75.3217C76.3028 75.2621 76.3928 75.2114 76.4952 75.168Z" fill="#EE8778"/>
<path d="M71.4742 81.4756C72.1663 82.5774 72.8027 83.7234 73.367 84.9004L74.5865 87.4417L71.2725 82.336L71.4742 81.4756Z" fill="#EE8778"/>
<path d="M85.9529 76.4795C85.6102 75.4778 85.0888 74.3699 84.3861 73.3004C83.7127 72.263 83.9366 70.9043 84.8521 70.126C84.7551 70.1659 84.6598 70.2202 84.5679 70.2798C83.6818 70.8549 83.2901 71.9077 83.5212 72.8789C83.5804 73.1476 83.688 73.408 83.8458 73.6511L86.1284 76.9926L85.9529 76.4795Z" fill="#EE8778"/>
<path d="M97.1383 89.06L99.1766 92.2003C99.6441 92.9206 99.4392 93.8835 98.719 94.351L87.1879 101.836C86.4676 102.303 85.5047 102.098 85.0372 101.378L82.9989 98.2379C82.5314 97.5176 82.7362 96.5547 83.4565 96.0871L94.9876 88.6024C95.7078 88.1349 96.6708 88.3398 97.1383 89.06Z" fill="#65B9FF"/>
<path d="M89.5337 100.319L87.1956 101.839C86.4703 102.297 85.5108 102.103 85.0377 101.373L82.9995 98.2402C82.5412 97.515 82.7359 96.5556 83.466 96.0824L94.9842 88.6085C95.0237 88.5882 95.0632 88.5681 95.1027 88.5479L85.8389 94.5573C85.1285 95.0202 84.9141 95.9898 85.392 96.7049L87.4255 99.8521C87.8784 100.543 88.8282 100.767 89.5337 100.319Z" fill="#3E7FFF"/>
</svg>
