<svg preserveAspectRatio="none" width="100%" height="100%" overflow="visible" style="display: block;" viewBox="0 0 264 111" fill="none" xmlns="http://www.w3.org/2000/svg">
<g id="Group 25">
<path id="Vector" d="M153.959 38.2793C153.959 43.3217 152.601 47.1168 149.883 49.6646C147.165 52.2125 143.376 53.4918 138.507 53.4918H130.394V23.6425H139.351C142.306 23.6425 144.89 24.1969 147.083 25.3162C149.275 26.4356 150.975 28.0666 152.169 30.2307C153.363 32.3841 153.959 35.0705 153.959 38.2793ZM148.555 38.4392C148.555 34.868 147.773 32.2562 146.197 30.5824C144.621 28.9087 142.347 28.0773 139.362 28.0773H135.572V49.0144H138.681C145.261 49.0144 148.555 45.4857 148.555 38.4392Z" fill="var(--fill-0, white)"/>
<path id="Vector_2" d="M172.084 29.9265C172.445 29.9265 172.84 29.9374 173.277 29.97C173.702 30.0027 174.075 30.0572 174.383 30.1444L173.925 35.1451C173.649 35.0906 173.308 35.0361 172.925 34.9926C172.532 34.9489 172.191 34.9272 171.883 34.9272C170.766 34.9272 169.723 35.1668 168.755 35.6353C167.776 36.1038 166.999 36.8338 166.392 37.8143C165.797 38.7947 165.498 40.0259 165.498 41.5076V53.4918H160.243V30.3515H164.286L165.041 34.3715H165.297C165.967 33.1513 166.882 32.1055 168.053 31.2339C169.212 30.3515 170.552 29.9265 172.084 29.9265Z" fill="var(--fill-0, white)"/>
<path id="Vector_3" d="M186.162 29.9265C188.985 29.9265 191.139 30.6115 192.602 31.9812C194.064 33.351 194.806 35.4742 194.806 38.3395V54.6175H191.21L190.201 51.2615H190.036C189.089 52.5743 188.099 53.5331 187.048 54.1495C185.997 54.766 184.577 55.0628 182.773 55.0628C180.806 55.0628 179.177 54.4463 177.891 53.225C176.602 52.0035 175.954 50.1086 175.954 47.5401C175.954 45.0288 176.778 43.1567 178.436 41.9011C180.095 40.6454 182.599 39.9491 185.967 39.8007L189.758 39.6637V38.4537C189.758 36.9354 189.417 35.8397 188.748 35.166C188.079 34.4925 187.131 34.1615 185.926 34.1615C184.824 34.1615 183.762 34.3442 182.753 34.698C181.743 35.052 180.744 35.4742 179.744 35.9537L178.128 32.0155C179.209 31.3877 180.434 30.8855 181.826 30.4973C183.205 30.1205 184.659 29.9265 186.162 29.9265ZM187.091 43.2594C184.855 43.3508 183.309 43.7731 182.443 44.5379C181.578 45.3028 181.155 46.3188 181.155 47.6086C181.155 48.773 181.455 49.5948 182.063 50.0971C182.67 50.5994 183.474 50.8391 184.462 50.8391C185.947 50.8391 187.193 50.3711 188.223 49.4351C189.243 48.4991 189.758 47.1064 189.758 45.2456V43.1909L187.091 43.2594Z" fill="var(--fill-0, white)"/>
<path id="Vector_4" d="M212.821 29.9265C215.427 29.9265 217.529 30.951 219.127 32.9997C220.725 35.0485 221.514 38.0994 221.514 42.1413C221.514 46.1832 220.693 49.2453 219.064 51.3275C217.424 53.4097 215.311 54.4454 212.695 54.4454C211.044 54.4454 209.709 54.1224 208.7 53.4877C207.681 52.853 206.872 52.1071 206.273 51.2608H205.946C206.031 51.8175 206.103 52.4187 206.177 53.0757C206.24 53.7327 206.282 54.334 206.282 54.8907V64.4889H201.09V30.3607H205.294L206.041 33.5007H206.294C206.892 32.5097 207.723 31.6636 208.763 30.9731C209.794 30.2717 211.15 29.9265 212.821 29.9265ZM211.338 34.3693C209.5 34.3693 208.196 34.9483 207.45 36.1174C206.693 37.2866 206.304 39.0459 206.273 41.3954V42.0969C206.273 44.6245 206.641 46.573 207.365 47.9203C208.091 49.2788 209.447 49.9469 211.423 49.9469C213.041 49.9469 214.251 49.2453 215.028 47.8312C215.806 46.4172 216.205 44.4908 216.205 42.0522C216.205 39.6137 215.817 37.7208 215.028 36.3735C214.251 35.0485 213.021 34.3693 211.338 34.3693Z" fill="var(--fill-0, white)"/>
<path id="Vector_5" d="M235.92 29.9265C238.741 29.9265 240.969 30.896 242.614 32.8348C244.257 34.7736 245.079 37.465 245.079 40.9321V43.7948H231.188C231.236 45.996 231.771 47.7066 232.781 48.9155C233.791 50.1244 235.188 50.729 236.969 50.729C238.315 50.729 239.535 50.5692 240.623 50.2613C241.712 49.9534 242.821 49.4973 243.96 48.8928V53.4091C242.92 53.9792 241.85 54.3899 240.741 54.6636C239.633 54.9372 238.297 55.0628 236.741 55.0628C234.702 55.0628 232.88 54.6065 231.287 53.6943C229.692 52.7818 228.454 51.4018 227.563 49.5542C226.673 47.7066 226.226 45.4142 226.226 42.6657C226.226 38.5258 227.117 35.3666 228.9 33.1883C230.682 31.01 233.02 29.9265 235.92 29.9265ZM235.92 34.0779C234.603 34.0779 233.533 34.5682 232.721 35.5262C231.91 36.4957 231.434 37.9327 231.306 39.8373H240.345C240.315 38.1721 239.949 36.7922 239.238 35.6973C238.524 34.6253 237.415 34.0779 235.92 34.0779Z" fill="var(--fill-0, white)"/>
<path id="Vector_6" d="M261.888 29.9265C262.209 29.9265 262.559 29.9374 262.947 29.97C263.326 30.0027 263.656 30.0572 263.931 30.1444L263.524 35.1451C263.279 35.0906 262.976 35.0361 262.635 34.9926C262.286 34.9489 261.983 34.9272 261.708 34.9272C260.715 34.9272 259.788 35.1668 258.929 35.6353C258.058 36.1038 257.367 36.8338 256.828 37.8143C256.299 38.7947 256.035 40.0259 256.035 41.5076V53.4918H251.363V30.3515H254.956L255.628 34.3715H255.854C256.451 33.1513 257.263 32.1055 258.303 31.2339C259.334 30.3515 260.526 29.9265 261.888 29.9265Z" fill="var(--fill-0, white)"/>
<path id="Vector_7" d="M155.531 91.1962H148.948L134.949 66.5561H134.779C134.864 67.8808 134.938 69.2952 135.011 70.7994C135.074 72.3148 135.128 73.8304 135.159 75.3569V91.1962H130.394V59.7759H136.934L150.891 84.2476H151.019C150.967 83.0802 150.913 81.7219 150.85 80.1952C150.797 78.6685 150.755 77.1867 150.723 75.7498V59.7759H155.531V91.1962Z" fill="var(--fill-0, white)"/>
<path id="Vector_8" d="M172.023 67.631C174.846 67.631 177 68.2728 178.463 69.5565C179.925 70.8401 180.667 72.8297 180.667 75.5147V90.7791H177.071L176.062 87.6341H175.897C174.95 88.8644 173.96 89.7629 172.909 90.3405C171.858 90.9182 170.438 91.1963 168.634 91.1963C166.668 91.1963 165.038 90.6186 163.752 89.4741C162.464 88.3295 161.815 86.5537 161.815 84.1469C161.815 81.7937 162.639 80.0394 164.297 78.8627C165.956 77.6861 168.46 77.0335 171.828 76.8945L175.619 76.7662V75.6324C175.619 74.2096 175.278 73.1827 174.609 72.5516C173.94 71.9205 172.992 71.6102 171.788 71.6102C170.685 71.6102 169.623 71.7815 168.614 72.113C167.604 72.4446 166.605 72.8403 165.606 73.2897L163.989 69.5992C165.07 69.011 166.295 68.5403 167.687 68.1766C169.067 67.8129 170.52 67.631 172.023 67.631ZM172.952 80.125C170.716 80.2106 169.17 80.6063 168.305 81.323C167.439 82.0397 167.016 82.9918 167.016 84.2005C167.016 85.2916 167.316 86.0617 167.924 86.5324C168.531 86.9924 169.335 87.2277 170.323 87.2277C171.808 87.2277 173.054 86.7891 174.084 85.912C175.104 85.0349 175.619 83.7298 175.619 81.9862V80.0607L172.952 80.125Z" fill="var(--fill-0, white)"/>
<path id="Vector_9" d="M194.894 86.931C195.431 86.931 195.969 86.8665 196.489 86.7376C197.017 86.6087 197.5 86.4582 197.948 86.2971V90.2616C197.482 90.5087 196.874 90.7343 196.121 90.917C195.369 91.0996 194.589 91.1963 193.765 91.1963C192.69 91.1963 191.705 90.9814 190.817 90.5409C189.931 90.1112 189.223 89.359 188.712 88.2848C188.192 87.221 187.942 85.7276 187.942 83.8259V71.9322H185.38V69.6115L188.192 67.7635L189.6 62.9181H192.376V67.9247H197.786V71.9215H192.376V83.7615C192.376 84.8251 192.61 85.6202 193.075 86.1359C193.541 86.6731 194.149 86.931 194.894 86.931Z" fill="var(--fill-0, white)"/>
<path id="Vector_10" d="M208.945 69.2021H204.232V91.1963H208.945V69.2021Z" fill="var(--fill-0, white)"/>
<path id="Vector_11" d="M234.082 79.3709C234.082 83.1486 233.153 86.0593 231.313 88.1141C229.466 90.1688 226.96 91.1963 223.79 91.1963C221.84 91.1963 220.092 90.7361 218.568 89.8158C217.031 88.8953 215.841 87.5469 214.961 85.7918C214.092 84.0261 213.658 81.8858 213.658 79.3709C213.658 75.5931 214.577 72.693 216.406 70.6703C218.244 68.6476 220.739 67.631 223.911 67.631C225.89 67.631 227.648 68.0912 229.172 68.9901C230.709 69.8997 231.91 71.2268 232.779 72.9712C233.648 74.7262 234.082 76.8559 234.082 79.3709ZM218.759 79.3709C218.759 81.7786 219.163 83.6408 219.971 84.9464C220.78 86.2628 222.073 86.9155 223.87 86.9155C225.667 86.9155 226.96 86.2628 227.769 84.9464C228.577 83.6301 228.98 81.768 228.98 79.3709C228.98 76.963 228.577 75.1222 227.769 73.8381C226.96 72.5538 225.648 71.9117 223.829 71.9117C222.062 71.9117 220.769 72.5538 219.971 73.8381C219.163 75.1222 218.759 76.9737 218.759 79.3709Z" fill="var(--fill-0, white)"/>
<path id="Vector_12" d="M251.659 67.631C254.022 67.631 255.87 68.2952 257.211 69.6347C258.551 70.9741 259.218 73.1304 259.218 76.125V91.1963H254.311V77.1922C254.311 73.7184 253.009 71.9868 250.417 71.9868C248.44 71.9868 247.089 72.6729 246.365 74.0342C245.639 75.3953 245.272 77.3446 245.272 79.882V91.1963H240.365V68.0557H244.14L244.844 71.083H245.113C245.788 69.8851 246.712 69.014 247.894 68.4586C249.077 67.9033 250.327 67.631 251.659 67.631Z" fill="var(--fill-0, white)"/>
<path id="Vector_13" fill-rule="evenodd" clip-rule="evenodd" d="M28.6431 43.4423C28.4254 54.1361 29.9593 64.8196 33.2151 75.0273C37.3615 88.0603 44.2095 100.04 53.2743 110.126C70.2559 102.065 84.3576 88.8703 93.7292 72.2628C98.4001 63.9893 101.804 54.9968 103.803 45.6601C105.367 38.3588 106.06 30.9056 105.872 23.4524C96.8464 48.5462 77.8659 68.7184 53.4425 78.845L52.7596 79.1286L52.1659 78.6728C40.6865 69.8728 32.453 57.4272 28.6431 43.4423Z" fill="var(--fill-0, #1666BA)"/>
<path id="Vector_14" fill-rule="evenodd" clip-rule="evenodd" d="M47.6236 107.544C40.1324 98.1565 34.4026 87.4121 30.7214 75.8476C26.3571 62.1463 25.0014 47.5943 26.7431 33.2855L26.8321 32.5259L27.5248 32.2222C40.261 26.6424 54.3432 25.4373 67.6632 28.6272C58.9645 23.8069 49.6128 20.2828 39.9047 18.1765C26.9113 15.3613 13.4429 15.1385 0.360378 17.5283C-0.461106 26.9461 0.122839 36.4347 2.102 45.6702C4.10097 55.007 7.5052 63.9894 12.1761 72.2729C20.6076 87.1996 32.8787 99.3819 47.6236 107.544Z" fill="var(--fill-0, #88B6FF)"/>
<path id="Vector_15" fill-rule="evenodd" clip-rule="evenodd" d="M60.7952 72.3943C82.1805 60.8197 98.2714 40.8804 105.228 16.9309C75.2433 -4.65897 35.6493 -5.60079 4.82333 14.1056C16.6688 12.5259 28.742 13.012 40.4489 15.5435C54.1253 18.5107 67.0989 24.2221 78.608 32.3436L79.2612 32.7994L79.1622 33.5994C77.4303 48.3336 70.899 61.9843 60.7952 72.3943Z" fill="var(--fill-0, #1F6AFF)"/>
</g>
</svg>
