<svg preserveAspectRatio="none" width="100%" height="100%" overflow="visible" style="display: block;" viewBox="0 0 140 140" fill="none" xmlns="http://www.w3.org/2000/svg">
<g id="Group 5">
<circle id="Ellipse 1" cx="70" cy="70" r="70" fill="var(--fill-0, white)"/>
<g id="passport">
<path id="Vector" d="M101.327 94H38.5131C34.8717 94 31.9199 91.07 31.9199 87.4555V51.5445C31.9199 47.93 34.8717 45 38.5131 45H101.327C104.968 45 107.92 47.93 107.92 51.5445V87.4555C107.92 91.07 104.968 94 101.327 94Z" fill="var(--fill-0, #0088FF)"/>
<path id="Vector_2" d="M107.92 51.5436V87.4564C107.92 91.071 104.967 94 101.326 94H69.9199V45H101.326C104.967 45 107.92 47.929 107.92 51.5436Z" fill="var(--fill-0, #004EB1)"/>
<g id="Group">
<path id="Vector_3" d="M53.3707 70.6765C57.7676 70.6765 61.332 67.1121 61.332 62.7153C61.332 58.3184 57.7676 54.754 53.3707 54.754C48.9738 54.754 45.4095 58.3184 45.4095 62.7153C45.4095 67.1121 48.9738 70.6765 53.3707 70.6765Z" fill="var(--fill-0, white)"/>
<path id="Vector_4" d="M64.6094 84.1885H42.1326V80.9112C42.1326 76.7586 45.5302 73.361 49.6828 73.361H57.059C61.2116 73.361 64.6092 76.7586 64.6092 80.9112L64.6094 84.1885Z" fill="var(--fill-0, white)"/>
</g>
<g id="Group_2">
<path id="Vector_5" d="M97.8993 61.2343H73.0404V66.9082H97.8993V61.2343Z" fill="var(--fill-0, #00D9E0)"/>
<path id="Vector_6" d="M97.8993 72.0339H73.0404V77.7078H97.8993V72.0339Z" fill="var(--fill-0, #00D9E0)"/>
</g>
</g>
</g>
</svg>
