<svg width="288" height="288" viewBox="0 0 288 288" fill="none" xmlns="http://www.w3.org/2000/svg">
<rect x="0.5" y="0.5" width="287" height="287" rx="143.5" fill="url(#paint0_linear_62_829)"/>
<rect x="0.5" y="0.5" width="287" height="287" rx="143.5" stroke="#7B7B7B" stroke-linejoin="round"/>
<mask id="path-2-outside-1_62_829" maskUnits="userSpaceOnUse" x="29.5" y="125.588" width="74" height="74" fill="black">
<rect fill="white" x="29.5" y="125.588" width="74" height="74"/>
<path d="M46.2953 126.588H55.3659C55.4702 126.588 55.5223 126.588 55.5223 126.588C55.5223 126.588 55.5223 126.64 55.5223 126.744V135.815C55.5223 135.919 55.5223 135.971 55.5223 135.971C55.5223 135.971 55.4702 135.971 55.3659 135.971H46.2953C46.1911 135.971 46.1389 135.971 46.1389 135.971C46.1389 135.971 46.1389 135.919 46.1389 135.815V126.744C46.1389 126.64 46.1389 126.588 46.1389 126.588C46.1389 126.588 46.1911 126.588 46.2953 126.588ZM61.9343 126.588H71.0048C71.1091 126.588 71.1612 126.588 71.1612 126.588C71.1612 126.588 71.1612 126.64 71.1612 126.744V135.815C71.1612 135.919 71.1612 135.971 71.1612 135.971C71.1612 135.971 71.1091 135.971 71.0048 135.971H61.9343C61.83 135.971 61.7779 135.971 61.7779 135.971C61.7779 135.971 61.7779 135.919 61.7779 135.815V126.744C61.7779 126.64 61.7779 126.588 61.7779 126.588C61.7779 126.588 61.83 126.588 61.9343 126.588ZM77.5732 126.588H86.6438C86.748 126.588 86.8002 126.588 86.8002 126.588C86.8002 126.588 86.8002 126.64 86.8002 126.744V135.815C86.8002 135.919 86.8002 135.971 86.8002 135.971C86.8002 135.971 86.748 135.971 86.6438 135.971H77.5732C77.4689 135.971 77.4168 135.971 77.4168 135.971C77.4168 135.971 77.4168 135.919 77.4168 135.815V126.744C77.4168 126.64 77.4168 126.588 77.4168 126.588C77.4168 126.588 77.4689 126.588 77.5732 126.588ZM30.6564 142.227H39.727C39.8312 142.227 39.8834 142.227 39.8834 142.227C39.8834 142.227 39.8834 142.279 39.8834 142.383V151.454C39.8834 151.558 39.8834 151.61 39.8834 151.61C39.8834 151.61 39.8312 151.61 39.727 151.61H30.6564C30.5521 151.61 30.5 151.61 30.5 151.61C30.5 151.61 30.5 151.558 30.5 151.454V142.383C30.5 142.279 30.5 142.227 30.5 142.227C30.5 142.227 30.5521 142.227 30.6564 142.227ZM93.2121 142.227H102.283C102.387 142.227 102.439 142.227 102.439 142.227C102.439 142.227 102.439 142.279 102.439 142.383V151.454C102.439 151.558 102.439 151.61 102.439 151.61C102.439 151.61 102.387 151.61 102.283 151.61H93.2121C93.1079 151.61 93.0557 151.61 93.0557 151.61C93.0557 151.61 93.0557 151.558 93.0557 151.454V142.383C93.0557 142.279 93.0557 142.227 93.0557 142.227C93.0557 142.227 93.1079 142.227 93.2121 142.227ZM30.6564 157.866H39.727C39.8312 157.866 39.8834 157.866 39.8834 157.866C39.8834 157.866 39.8834 157.918 39.8834 158.022V167.093C39.8834 167.197 39.8834 167.249 39.8834 167.249C39.8834 167.249 39.8312 167.249 39.727 167.249H30.6564C30.5521 167.249 30.5 167.249 30.5 167.249C30.5 167.249 30.5 167.197 30.5 167.093V158.022C30.5 157.918 30.5 157.866 30.5 157.866C30.5 157.866 30.5521 157.866 30.6564 157.866ZM46.2953 157.866H55.3659C55.4702 157.866 55.5223 157.866 55.5223 157.866C55.5223 157.866 55.5223 157.918 55.5223 158.022V167.093C55.5223 167.197 55.5223 167.249 55.5223 167.249C55.5223 167.249 55.4702 167.249 55.3659 167.249H46.2953C46.1911 167.249 46.1389 167.249 46.1389 167.249C46.1389 167.249 46.1389 167.197 46.1389 167.093V158.022C46.1389 157.918 46.1389 157.866 46.1389 157.866C46.1389 157.866 46.1911 157.866 46.2953 157.866ZM61.9343 157.866H71.0048C71.1091 157.866 71.1612 157.866 71.1612 157.866C71.1612 157.866 71.1612 157.918 71.1612 158.022V167.093C71.1612 167.197 71.1612 167.249 71.1612 167.249C71.1612 167.249 71.1091 167.249 71.0048 167.249H61.9343C61.83 167.249 61.7779 167.249 61.7779 167.249C61.7779 167.249 61.7779 167.197 61.7779 167.093V158.022C61.7779 157.918 61.7779 157.866 61.7779 157.866C61.7779 157.866 61.83 157.866 61.9343 157.866ZM77.5732 157.866H86.6438C86.748 157.866 86.8002 157.866 86.8002 157.866C86.8002 157.866 86.8002 157.918 86.8002 158.022V167.093C86.8002 167.197 86.8002 167.249 86.8002 167.249C86.8002 167.249 86.748 167.249 86.6438 167.249H77.5732C77.4689 167.249 77.4168 167.249 77.4168 167.249C77.4168 167.249 77.4168 167.197 77.4168 167.093V158.022C77.4168 157.918 77.4168 157.866 77.4168 157.866C77.4168 157.866 77.4689 157.866 77.5732 157.866ZM93.2121 157.866H102.283C102.387 157.866 102.439 157.866 102.439 157.866C102.439 157.866 102.439 157.918 102.439 158.022V167.093C102.439 167.197 102.439 167.249 102.439 167.249C102.439 167.249 102.387 167.249 102.283 167.249H93.2121C93.1079 167.249 93.0557 167.249 93.0557 167.249C93.0557 167.249 93.0557 167.197 93.0557 167.093V158.022C93.0557 157.918 93.0557 157.866 93.0557 157.866C93.0557 157.866 93.1079 157.866 93.2121 157.866ZM30.6564 173.505H39.727C39.8312 173.505 39.8834 173.505 39.8834 173.505C39.8834 173.505 39.8834 173.557 39.8834 173.661V182.732C39.8834 182.836 39.8834 182.888 39.8834 182.888C39.8834 182.888 39.8312 182.888 39.727 182.888H30.6564C30.5521 182.888 30.5 182.888 30.5 182.888C30.5 182.888 30.5 182.836 30.5 182.732V173.661C30.5 173.557 30.5 173.505 30.5 173.505C30.5 173.505 30.5521 173.505 30.6564 173.505ZM46.2953 189.144H55.3659C55.4702 189.144 55.5223 189.144 55.5223 189.144C55.5223 189.144 55.5223 189.196 55.5223 189.3V198.371C55.5223 198.475 55.5223 198.527 55.5223 198.527C55.5223 198.527 55.4702 198.527 55.3659 198.527H46.2953C46.1911 198.527 46.1389 198.527 46.1389 198.527C46.1389 198.527 46.1389 198.475 46.1389 198.371V189.3C46.1389 189.196 46.1389 189.144 46.1389 189.144C46.1389 189.144 46.1911 189.144 46.2953 189.144ZM61.9343 189.144H71.0048C71.1091 189.144 71.1612 189.144 71.1612 189.144C71.1612 189.144 71.1612 189.196 71.1612 189.3V198.371C71.1612 198.475 71.1612 198.527 71.1612 198.527C71.1612 198.527 71.1091 198.527 71.0048 198.527H61.9343C61.83 198.527 61.7779 198.527 61.7779 198.527C61.7779 198.527 61.7779 198.475 61.7779 198.371V189.3C61.7779 189.196 61.7779 189.144 61.7779 189.144C61.7779 189.144 61.83 189.144 61.9343 189.144ZM77.5732 189.144H86.6438C86.748 189.144 86.8002 189.144 86.8002 189.144C86.8002 189.144 86.8002 189.196 86.8002 189.3V198.371C86.8002 198.475 86.8002 198.527 86.8002 198.527C86.8002 198.527 86.748 198.527 86.6438 198.527H77.5732C77.4689 198.527 77.4168 198.527 77.4168 198.527C77.4168 198.527 77.4168 198.475 77.4168 198.371V189.3C77.4168 189.196 77.4168 189.144 77.4168 189.144C77.4168 189.144 77.4689 189.144 77.5732 189.144Z"/>
</mask>
<path d="M46.2953 126.588H55.3659C55.4702 126.588 55.5223 126.588 55.5223 126.588C55.5223 126.588 55.5223 126.64 55.5223 126.744V135.815C55.5223 135.919 55.5223 135.971 55.5223 135.971C55.5223 135.971 55.4702 135.971 55.3659 135.971H46.2953C46.1911 135.971 46.1389 135.971 46.1389 135.971C46.1389 135.971 46.1389 135.919 46.1389 135.815V126.744C46.1389 126.64 46.1389 126.588 46.1389 126.588C46.1389 126.588 46.1911 126.588 46.2953 126.588ZM61.9343 126.588H71.0048C71.1091 126.588 71.1612 126.588 71.1612 126.588C71.1612 126.588 71.1612 126.64 71.1612 126.744V135.815C71.1612 135.919 71.1612 135.971 71.1612 135.971C71.1612 135.971 71.1091 135.971 71.0048 135.971H61.9343C61.83 135.971 61.7779 135.971 61.7779 135.971C61.7779 135.971 61.7779 135.919 61.7779 135.815V126.744C61.7779 126.64 61.7779 126.588 61.7779 126.588C61.7779 126.588 61.83 126.588 61.9343 126.588ZM77.5732 126.588H86.6438C86.748 126.588 86.8002 126.588 86.8002 126.588C86.8002 126.588 86.8002 126.64 86.8002 126.744V135.815C86.8002 135.919 86.8002 135.971 86.8002 135.971C86.8002 135.971 86.748 135.971 86.6438 135.971H77.5732C77.4689 135.971 77.4168 135.971 77.4168 135.971C77.4168 135.971 77.4168 135.919 77.4168 135.815V126.744C77.4168 126.64 77.4168 126.588 77.4168 126.588C77.4168 126.588 77.4689 126.588 77.5732 126.588ZM30.6564 142.227H39.727C39.8312 142.227 39.8834 142.227 39.8834 142.227C39.8834 142.227 39.8834 142.279 39.8834 142.383V151.454C39.8834 151.558 39.8834 151.61 39.8834 151.61C39.8834 151.61 39.8312 151.61 39.727 151.61H30.6564C30.5521 151.61 30.5 151.61 30.5 151.61C30.5 151.61 30.5 151.558 30.5 151.454V142.383C30.5 142.279 30.5 142.227 30.5 142.227C30.5 142.227 30.5521 142.227 30.6564 142.227ZM93.2121 142.227H102.283C102.387 142.227 102.439 142.227 102.439 142.227C102.439 142.227 102.439 142.279 102.439 142.383V151.454C102.439 151.558 102.439 151.61 102.439 151.61C102.439 151.61 102.387 151.61 102.283 151.61H93.2121C93.1079 151.61 93.0557 151.61 93.0557 151.61C93.0557 151.61 93.0557 151.558 93.0557 151.454V142.383C93.0557 142.279 93.0557 142.227 93.0557 142.227C93.0557 142.227 93.1079 142.227 93.2121 142.227ZM30.6564 157.866H39.727C39.8312 157.866 39.8834 157.866 39.8834 157.866C39.8834 157.866 39.8834 157.918 39.8834 158.022V167.093C39.8834 167.197 39.8834 167.249 39.8834 167.249C39.8834 167.249 39.8312 167.249 39.727 167.249H30.6564C30.5521 167.249 30.5 167.249 30.5 167.249C30.5 167.249 30.5 167.197 30.5 167.093V158.022C30.5 157.918 30.5 157.866 30.5 157.866C30.5 157.866 30.5521 157.866 30.6564 157.866ZM46.2953 157.866H55.3659C55.4702 157.866 55.5223 157.866 55.5223 157.866C55.5223 157.866 55.5223 157.918 55.5223 158.022V167.093C55.5223 167.197 55.5223 167.249 55.5223 167.249C55.5223 167.249 55.4702 167.249 55.3659 167.249H46.2953C46.1911 167.249 46.1389 167.249 46.1389 167.249C46.1389 167.249 46.1389 167.197 46.1389 167.093V158.022C46.1389 157.918 46.1389 157.866 46.1389 157.866C46.1389 157.866 46.1911 157.866 46.2953 157.866ZM61.9343 157.866H71.0048C71.1091 157.866 71.1612 157.866 71.1612 157.866C71.1612 157.866 71.1612 157.918 71.1612 158.022V167.093C71.1612 167.197 71.1612 167.249 71.1612 167.249C71.1612 167.249 71.1091 167.249 71.0048 167.249H61.9343C61.83 167.249 61.7779 167.249 61.7779 167.249C61.7779 167.249 61.7779 167.197 61.7779 167.093V158.022C61.7779 157.918 61.7779 157.866 61.7779 157.866C61.7779 157.866 61.83 157.866 61.9343 157.866ZM77.5732 157.866H86.6438C86.748 157.866 86.8002 157.866 86.8002 157.866C86.8002 157.866 86.8002 157.918 86.8002 158.022V167.093C86.8002 167.197 86.8002 167.249 86.8002 167.249C86.8002 167.249 86.748 167.249 86.6438 167.249H77.5732C77.4689 167.249 77.4168 167.249 77.4168 167.249C77.4168 167.249 77.4168 167.197 77.4168 167.093V158.022C77.4168 157.918 77.4168 157.866 77.4168 157.866C77.4168 157.866 77.4689 157.866 77.5732 157.866ZM93.2121 157.866H102.283C102.387 157.866 102.439 157.866 102.439 157.866C102.439 157.866 102.439 157.918 102.439 158.022V167.093C102.439 167.197 102.439 167.249 102.439 167.249C102.439 167.249 102.387 167.249 102.283 167.249H93.2121C93.1079 167.249 93.0557 167.249 93.0557 167.249C93.0557 167.249 93.0557 167.197 93.0557 167.093V158.022C93.0557 157.918 93.0557 157.866 93.0557 157.866C93.0557 157.866 93.1079 157.866 93.2121 157.866ZM30.6564 173.505H39.727C39.8312 173.505 39.8834 173.505 39.8834 173.505C39.8834 173.505 39.8834 173.557 39.8834 173.661V182.732C39.8834 182.836 39.8834 182.888 39.8834 182.888C39.8834 182.888 39.8312 182.888 39.727 182.888H30.6564C30.5521 182.888 30.5 182.888 30.5 182.888C30.5 182.888 30.5 182.836 30.5 182.732V173.661C30.5 173.557 30.5 173.505 30.5 173.505C30.5 173.505 30.5521 173.505 30.6564 173.505ZM46.2953 189.144H55.3659C55.4702 189.144 55.5223 189.144 55.5223 189.144C55.5223 189.144 55.5223 189.196 55.5223 189.3V198.371C55.5223 198.475 55.5223 198.527 55.5223 198.527C55.5223 198.527 55.4702 198.527 55.3659 198.527H46.2953C46.1911 198.527 46.1389 198.527 46.1389 198.527C46.1389 198.527 46.1389 198.475 46.1389 198.371V189.3C46.1389 189.196 46.1389 189.144 46.1389 189.144C46.1389 189.144 46.1911 189.144 46.2953 189.144ZM61.9343 189.144H71.0048C71.1091 189.144 71.1612 189.144 71.1612 189.144C71.1612 189.144 71.1612 189.196 71.1612 189.3V198.371C71.1612 198.475 71.1612 198.527 71.1612 198.527C71.1612 198.527 71.1091 198.527 71.0048 198.527H61.9343C61.83 198.527 61.7779 198.527 61.7779 198.527C61.7779 198.527 61.7779 198.475 61.7779 198.371V189.3C61.7779 189.196 61.7779 189.144 61.7779 189.144C61.7779 189.144 61.83 189.144 61.9343 189.144ZM77.5732 189.144H86.6438C86.748 189.144 86.8002 189.144 86.8002 189.144C86.8002 189.144 86.8002 189.196 86.8002 189.3V198.371C86.8002 198.475 86.8002 198.527 86.8002 198.527C86.8002 198.527 86.748 198.527 86.6438 198.527H77.5732C77.4689 198.527 77.4168 198.527 77.4168 198.527C77.4168 198.527 77.4168 198.475 77.4168 198.371V189.3C77.4168 189.196 77.4168 189.144 77.4168 189.144C77.4168 189.144 77.4689 189.144 77.5732 189.144Z" fill="white"/>
<path d="M46.2953 126.588H55.3659C55.4702 126.588 55.5223 126.588 55.5223 126.588C55.5223 126.588 55.5223 126.64 55.5223 126.744V135.815C55.5223 135.919 55.5223 135.971 55.5223 135.971C55.5223 135.971 55.4702 135.971 55.3659 135.971H46.2953C46.1911 135.971 46.1389 135.971 46.1389 135.971C46.1389 135.971 46.1389 135.919 46.1389 135.815V126.744C46.1389 126.64 46.1389 126.588 46.1389 126.588C46.1389 126.588 46.1911 126.588 46.2953 126.588ZM61.9343 126.588H71.0048C71.1091 126.588 71.1612 126.588 71.1612 126.588C71.1612 126.588 71.1612 126.64 71.1612 126.744V135.815C71.1612 135.919 71.1612 135.971 71.1612 135.971C71.1612 135.971 71.1091 135.971 71.0048 135.971H61.9343C61.83 135.971 61.7779 135.971 61.7779 135.971C61.7779 135.971 61.7779 135.919 61.7779 135.815V126.744C61.7779 126.64 61.7779 126.588 61.7779 126.588C61.7779 126.588 61.83 126.588 61.9343 126.588ZM77.5732 126.588H86.6438C86.748 126.588 86.8002 126.588 86.8002 126.588C86.8002 126.588 86.8002 126.64 86.8002 126.744V135.815C86.8002 135.919 86.8002 135.971 86.8002 135.971C86.8002 135.971 86.748 135.971 86.6438 135.971H77.5732C77.4689 135.971 77.4168 135.971 77.4168 135.971C77.4168 135.971 77.4168 135.919 77.4168 135.815V126.744C77.4168 126.64 77.4168 126.588 77.4168 126.588C77.4168 126.588 77.4689 126.588 77.5732 126.588ZM30.6564 142.227H39.727C39.8312 142.227 39.8834 142.227 39.8834 142.227C39.8834 142.227 39.8834 142.279 39.8834 142.383V151.454C39.8834 151.558 39.8834 151.61 39.8834 151.61C39.8834 151.61 39.8312 151.61 39.727 151.61H30.6564C30.5521 151.61 30.5 151.61 30.5 151.61C30.5 151.61 30.5 151.558 30.5 151.454V142.383C30.5 142.279 30.5 142.227 30.5 142.227C30.5 142.227 30.5521 142.227 30.6564 142.227ZM93.2121 142.227H102.283C102.387 142.227 102.439 142.227 102.439 142.227C102.439 142.227 102.439 142.279 102.439 142.383V151.454C102.439 151.558 102.439 151.61 102.439 151.61C102.439 151.61 102.387 151.61 102.283 151.61H93.2121C93.1079 151.61 93.0557 151.61 93.0557 151.61C93.0557 151.61 93.0557 151.558 93.0557 151.454V142.383C93.0557 142.279 93.0557 142.227 93.0557 142.227C93.0557 142.227 93.1079 142.227 93.2121 142.227ZM30.6564 157.866H39.727C39.8312 157.866 39.8834 157.866 39.8834 157.866C39.8834 157.866 39.8834 157.918 39.8834 158.022V167.093C39.8834 167.197 39.8834 167.249 39.8834 167.249C39.8834 167.249 39.8312 167.249 39.727 167.249H30.6564C30.5521 167.249 30.5 167.249 30.5 167.249C30.5 167.249 30.5 167.197 30.5 167.093V158.022C30.5 157.918 30.5 157.866 30.5 157.866C30.5 157.866 30.5521 157.866 30.6564 157.866ZM46.2953 157.866H55.3659C55.4702 157.866 55.5223 157.866 55.5223 157.866C55.5223 157.866 55.5223 157.918 55.5223 158.022V167.093C55.5223 167.197 55.5223 167.249 55.5223 167.249C55.5223 167.249 55.4702 167.249 55.3659 167.249H46.2953C46.1911 167.249 46.1389 167.249 46.1389 167.249C46.1389 167.249 46.1389 167.197 46.1389 167.093V158.022C46.1389 157.918 46.1389 157.866 46.1389 157.866C46.1389 157.866 46.1911 157.866 46.2953 157.866ZM61.9343 157.866H71.0048C71.1091 157.866 71.1612 157.866 71.1612 157.866C71.1612 157.866 71.1612 157.918 71.1612 158.022V167.093C71.1612 167.197 71.1612 167.249 71.1612 167.249C71.1612 167.249 71.1091 167.249 71.0048 167.249H61.9343C61.83 167.249 61.7779 167.249 61.7779 167.249C61.7779 167.249 61.7779 167.197 61.7779 167.093V158.022C61.7779 157.918 61.7779 157.866 61.7779 157.866C61.7779 157.866 61.83 157.866 61.9343 157.866ZM77.5732 157.866H86.6438C86.748 157.866 86.8002 157.866 86.8002 157.866C86.8002 157.866 86.8002 157.918 86.8002 158.022V167.093C86.8002 167.197 86.8002 167.249 86.8002 167.249C86.8002 167.249 86.748 167.249 86.6438 167.249H77.5732C77.4689 167.249 77.4168 167.249 77.4168 167.249C77.4168 167.249 77.4168 167.197 77.4168 167.093V158.022C77.4168 157.918 77.4168 157.866 77.4168 157.866C77.4168 157.866 77.4689 157.866 77.5732 157.866ZM93.2121 157.866H102.283C102.387 157.866 102.439 157.866 102.439 157.866C102.439 157.866 102.439 157.918 102.439 158.022V167.093C102.439 167.197 102.439 167.249 102.439 167.249C102.439 167.249 102.387 167.249 102.283 167.249H93.2121C93.1079 167.249 93.0557 167.249 93.0557 167.249C93.0557 167.249 93.0557 167.197 93.0557 167.093V158.022C93.0557 157.918 93.0557 157.866 93.0557 157.866C93.0557 157.866 93.1079 157.866 93.2121 157.866ZM30.6564 173.505H39.727C39.8312 173.505 39.8834 173.505 39.8834 173.505C39.8834 173.505 39.8834 173.557 39.8834 173.661V182.732C39.8834 182.836 39.8834 182.888 39.8834 182.888C39.8834 182.888 39.8312 182.888 39.727 182.888H30.6564C30.5521 182.888 30.5 182.888 30.5 182.888C30.5 182.888 30.5 182.836 30.5 182.732V173.661C30.5 173.557 30.5 173.505 30.5 173.505C30.5 173.505 30.5521 173.505 30.6564 173.505ZM46.2953 189.144H55.3659C55.4702 189.144 55.5223 189.144 55.5223 189.144C55.5223 189.144 55.5223 189.196 55.5223 189.3V198.371C55.5223 198.475 55.5223 198.527 55.5223 198.527C55.5223 198.527 55.4702 198.527 55.3659 198.527H46.2953C46.1911 198.527 46.1389 198.527 46.1389 198.527C46.1389 198.527 46.1389 198.475 46.1389 198.371V189.3C46.1389 189.196 46.1389 189.144 46.1389 189.144C46.1389 189.144 46.1911 189.144 46.2953 189.144ZM61.9343 189.144H71.0048C71.1091 189.144 71.1612 189.144 71.1612 189.144C71.1612 189.144 71.1612 189.196 71.1612 189.3V198.371C71.1612 198.475 71.1612 198.527 71.1612 198.527C71.1612 198.527 71.1091 198.527 71.0048 198.527H61.9343C61.83 198.527 61.7779 198.527 61.7779 198.527C61.7779 198.527 61.7779 198.475 61.7779 198.371V189.3C61.7779 189.196 61.7779 189.144 61.7779 189.144C61.7779 189.144 61.83 189.144 61.9343 189.144ZM77.5732 189.144H86.6438C86.748 189.144 86.8002 189.144 86.8002 189.144C86.8002 189.144 86.8002 189.196 86.8002 189.3V198.371C86.8002 198.475 86.8002 198.527 86.8002 198.527C86.8002 198.527 86.748 198.527 86.6438 198.527H77.5732C77.4689 198.527 77.4168 198.527 77.4168 198.527C77.4168 198.527 77.4168 198.475 77.4168 198.371V189.3C77.4168 189.196 77.4168 189.144 77.4168 189.144C77.4168 189.144 77.4689 189.144 77.5732 189.144Z" stroke="white" stroke-width="2" mask="url(#path-2-outside-1_62_829)"/>
<path d="M257.5 200.224H247.351L232.649 164.254H181.421L166.563 200.224H156.575L202.781 87.7764H211.294L257.5 200.224ZM185.242 155.023H228.826L206.965 101.83L185.242 155.023Z" fill="white"/>
<path d="M257.5 200.224H247.351L232.649 164.254H181.421L166.563 200.224H156.575L202.781 87.7764H211.294L257.5 200.224ZM185.242 155.023H228.826L206.965 101.83L185.242 155.023Z" stroke="white"/>
<path d="M155.461 167.25H118.078V157.866H155.461V167.25Z" fill="white"/>
<path d="M155.461 167.25H118.078V157.866H155.461V167.25Z" stroke="white"/>
<defs>
<linearGradient id="paint0_linear_62_829" x1="65" y1="218.5" x2="254.5" y2="22.5" gradientUnits="userSpaceOnUse">
<stop stop-color="#0C4CD3"/>
<stop offset="0.67783" stop-color="#700265"/>
<stop offset="1" stop-color="#DA1E3F"/>
</linearGradient>
</defs>
</svg>

