<svg preserveAspectRatio="none" width="100%" height="100%" overflow="visible" style="display: block;" viewBox="0 0 140 140" fill="none" xmlns="http://www.w3.org/2000/svg">
<g id="Group 5">
<circle id="Ellipse 1" cx="70" cy="70" r="70" fill="var(--fill-0, white)"/>
<g id="office">
<path id="Vector" d="M86.2187 54.5885V72.8777L83.118 73.4432L80.6317 73.8964L75.046 72.8777L73.4964 58.3583L74.8029 45.1065L75.046 42.6446C75.3266 42.7223 75.6417 42.882 75.9496 43.1799L85.154 52.0763C85.8345 52.7353 86.2187 53.6417 86.2187 54.5885Z" fill="var(--fill-0, #60B7FF)"/>
<path id="Vector_2" d="M86.2187 54.5885V72.8777L83.118 73.4432V54.5885C83.118 53.6417 82.7338 52.7353 82.0532 52.0763L74.8029 45.1065L75.046 42.6446C75.3266 42.7223 75.6417 42.882 75.9496 43.1799L85.1539 52.0763C85.8345 52.7353 86.2187 53.6417 86.2187 54.5885Z" fill="var(--fill-0, #26A6FE)"/>
<path id="Vector_3" d="M97.3914 75.2705V102.424L90.3698 103.524L85.7165 104.253L75.046 102.424L73.4964 89.3453L75.046 72.8777H94.9986C95.659 72.8777 96.2576 73.1453 96.6906 73.5784C97.1237 74.0115 97.3914 74.6101 97.3914 75.2705Z" fill="var(--fill-0, #F5FCFF)"/>
<path id="Vector_4" d="M97.3914 75.2705V102.424L90.3698 103.524V100.213C90.3698 97.8371 91.7489 95.7849 93.7502 94.8096C94.0799 94.6489 94.2906 94.3165 94.2906 93.9498V75.2705C94.2906 73.9482 93.2187 72.8777 91.8964 72.8777H94.9986C95.659 72.8777 96.2575 73.1453 96.6906 73.5784C97.1237 74.0115 97.3914 74.6101 97.3914 75.2705Z" fill="var(--fill-0, #DDF4FE)"/>
<path id="Vector_5" d="M99.1378 94.205H99.7471C103.065 94.205 105.755 96.8951 105.755 100.213V102.425L99.4425 103.524L93.1295 102.425V100.213C93.1295 96.8951 95.8196 94.205 99.1378 94.205Z" fill="var(--fill-0, #BBEC6C)"/>
<path id="Vector_6" d="M99.7471 94.205H99.1378C98.7105 94.205 98.294 94.2504 97.8918 94.3352C100.612 94.9091 102.654 97.3224 102.654 100.213V102.964L105.755 102.425V100.214C105.755 96.8951 103.065 94.205 99.7471 94.205Z" fill="var(--fill-0, #A2E62E)"/>
<path id="Vector_7" d="M91.4342 81.7784H80.8514C80.4422 81.7784 80.1105 81.4468 80.1105 81.0376V78.44C80.1105 78.0308 80.4422 77.6991 80.8514 77.6991H91.4342C91.8435 77.6991 92.1751 78.0308 92.1751 78.44V81.0376C92.1751 81.4468 91.8435 81.7784 91.4342 81.7784Z" fill="var(--fill-0, #C8EFFE)"/>
<path id="Vector_8" d="M91.4342 77.6993H88.3329C88.7422 77.6993 89.0738 78.0309 89.0738 78.4401V81.0376C89.0738 81.4468 88.7422 81.7784 88.3329 81.7784H91.4342C91.8434 81.7784 92.1751 81.4468 92.1751 81.0376V78.4401C92.1751 78.0309 91.8434 77.6993 91.4342 77.6993Z" fill="var(--fill-0, #99E6FC)"/>
<path id="Vector_9" d="M91.4342 89.9842H80.8514C80.4422 89.9842 80.1105 89.6525 80.1105 89.2433V86.6458C80.1105 86.2365 80.4422 85.9049 80.8514 85.9049H91.4342C91.8435 85.9049 92.1751 86.2365 92.1751 86.6458V89.2433C92.1751 89.6525 91.8435 89.9842 91.4342 89.9842Z" fill="var(--fill-0, #C8EFFE)"/>
<path id="Vector_10" d="M91.4342 85.905H88.3329C88.7422 85.905 89.0738 86.2367 89.0738 86.6459V89.2433C89.0738 89.6525 88.7422 89.9842 88.3329 89.9842H91.4342C91.8434 89.9842 92.1751 89.6525 92.1751 89.2433V86.6459C92.1751 86.2367 91.8434 85.905 91.4342 85.905Z" fill="var(--fill-0, #99E6FC)"/>
<path id="Vector_11" d="M84.3518 98.2738H80.8514C80.4422 98.2738 80.1105 97.9422 80.1105 97.533V94.9354C80.1105 94.5262 80.4422 94.1945 80.8514 94.1945H84.3518C84.761 94.1945 85.0927 94.5262 85.0927 94.9354V97.533C85.0927 97.9422 84.761 98.2738 84.3518 98.2738Z" fill="var(--fill-0, #C8EFFE)"/>
<path id="Vector_12" d="M84.3518 94.1947H81.2505C81.6597 94.1947 81.9914 94.5263 81.9914 94.9355V97.5331C81.9914 97.9423 81.6597 98.274 81.2505 98.274H84.3518C84.761 98.274 85.0927 97.9423 85.0927 97.5331V94.9355C85.0927 94.5263 84.761 94.1947 84.3518 94.1947Z" fill="var(--fill-0, #99E6FC)"/>
<path id="Vector_13" d="M75.0462 109.138H104.133C105.029 109.138 105.755 108.412 105.755 107.516V102.425H75.0462L73.8601 105.781L75.0462 109.138Z" fill="var(--fill-0, #B6C4CF)"/>
<path id="Vector_14" d="M102.654 102.425V107.516C102.654 108.412 101.928 109.138 101.032 109.138H104.133C105.029 109.138 105.755 108.412 105.755 107.516V102.425H102.654Z" fill="var(--fill-0, #9FACBA)"/>
<path id="Vector_15" d="M35.8672 109.138H42.9161L44.0433 105.781L42.9161 102.425L38.5804 101.229L34.2446 102.425V107.516C34.2446 108.412 34.9711 109.138 35.8672 109.138Z" fill="var(--fill-0, #B6C4CF)"/>
<path id="Vector_16" d="M39.8148 102.425V109.138H42.9161L44.0433 105.781L42.9161 102.425L41.0875 101.92L39.8148 102.425Z" fill="var(--fill-0, #9FACBA)"/>
<path id="Vector_17" d="M42.0676 94.205H42.9161L44.0433 98.3148L42.9161 102.425H34.2446V102.028C34.2446 97.7076 37.7471 94.205 42.0676 94.205Z" fill="var(--fill-0, #BBEC6C)"/>
<path id="Vector_18" d="M42.0676 94.205C41.2843 94.205 40.5285 94.3216 39.815 94.5358V102.425H42.9163L44.0435 98.3148L42.9163 94.205H42.0676Z" fill="var(--fill-0, #A2E62E)"/>
<path id="Vector_19" d="M55.4906 52.7007H50.7758V43.1776C50.7758 41.9384 51.7804 40.9338 53.0196 40.9338H53.247C54.4862 40.9338 55.4908 41.9384 55.4908 43.1776L55.4906 52.7007Z" fill="var(--fill-0, #ACA6D6)"/>
<path id="Vector_20" d="M53.2469 40.9338H53.0194C52.5738 40.9338 52.1597 41.0653 51.8105 41.2894C52.4322 41.6882 52.8453 42.384 52.8453 43.1776V52.7007H55.4905V43.1776C55.4906 41.9383 54.486 40.9338 53.2469 40.9338Z" fill="var(--fill-0, #978ECB)"/>
<path id="Vector_21" d="M75.046 49.577L74.5626 50.7914L75.046 51.8561V57.3439L74.5626 58.5151L75.046 59.623V65.1108L74.5626 66.2532L75.046 67.3899V72.8777L74.5626 74.0043L75.046 75.1568V80.6446L74.5626 81.8504L75.046 82.9237V109.138H63.6014L57.6288 106.981L50.7755 109.138H42.9165V55.6173C42.9165 54.1165 43.8748 52.7842 45.2964 52.3065L71.9453 43.3482L74.0921 42.6273C74.0921 42.6273 74.0921 42.6273 74.0935 42.6259C74.0964 42.6259 74.1022 42.6245 74.1094 42.6216C74.1942 42.5986 74.5712 42.5079 75.046 42.6446V49.577Z" fill="var(--fill-0, #67D5FF)"/>
<path id="Vector_22" d="M75.046 49.577L74.5626 50.7914L75.046 51.8561V57.3439L74.5626 58.5151L75.046 59.623V65.1108L74.5626 66.2532L75.046 67.3899V72.8777L74.5626 74.0043L75.046 75.1568V80.6446L74.5626 81.8504L75.046 82.9237V109.138H71.9453V43.3482L74.0921 42.6273C74.0921 42.6273 74.0921 42.6273 74.0935 42.6259C74.0964 42.6259 74.1022 42.6245 74.1094 42.6216C74.1942 42.5986 74.5712 42.5079 75.046 42.6446V49.577Z" fill="var(--fill-0, #99E6FC)"/>
<path id="Vector_23" d="M63.5655 96.846V109.138H50.7755V99.9698C50.7755 99.259 51.2489 98.636 51.9338 98.4446L56.0907 97.2834L58.2489 96.682L61.9784 95.6403C62.7755 95.4187 63.5655 96.0173 63.5655 96.846Z" fill="var(--fill-0, #60B7FF)"/>
<path id="Vector_24" d="M61.9778 95.6407L60.2358 96.1271C60.3778 96.3284 60.4639 96.5742 60.4639 96.8455V109.138H63.5652V96.8455C63.565 96.0177 62.7752 95.4181 61.9778 95.6407Z" fill="var(--fill-0, #26A6FE)"/>
<g id="Group">
<g id="Group_2">
<path id="Vector_25" d="M75.046 49.577V51.8561L71.9453 52.9079L51.1194 59.9741C51.0058 60.013 50.8892 60.0302 50.7755 60.0302C50.3252 60.0302 49.9036 59.7453 49.7525 59.295C49.5626 58.7295 49.8662 58.118 50.4317 57.9281L71.9453 50.6288L75.046 49.577Z" fill="var(--fill-0, #DDF4FE)"/>
</g>
<g id="Group_3">
<path id="Vector_26" d="M75.046 57.3439V59.623L71.9453 60.6748L51.1194 67.741C51.0058 67.7799 50.8892 67.7971 50.7755 67.7971C50.3252 67.7971 49.9036 67.5122 49.7525 67.0619C49.5626 66.4964 49.8662 65.8849 50.4317 65.695L71.9453 58.3957L75.046 57.3439Z" fill="var(--fill-0, #DDF4FE)"/>
</g>
<g id="Group_4">
<path id="Vector_27" d="M75.046 65.1108V67.3899L71.9453 68.4417L51.1194 75.5079C51.0058 75.5468 50.8892 75.564 50.7755 75.564C50.3252 75.564 49.9036 75.2791 49.7525 74.8288C49.5626 74.2633 49.8662 73.6518 50.4317 73.4619L71.9453 66.1626L75.046 65.1108Z" fill="var(--fill-0, #DDF4FE)"/>
</g>
<g id="Group_5">
<path id="Vector_28" d="M75.046 72.8777V75.1568L71.9453 76.2086L51.1194 83.2748C51.0058 83.3137 50.8892 83.3309 50.7755 83.3309C50.3252 83.3309 49.9036 83.046 49.7525 82.5957C49.5626 82.0302 49.8662 81.4187 50.4317 81.2288L71.9453 73.9295L75.046 72.8777Z" fill="var(--fill-0, #DDF4FE)"/>
</g>
<path id="Vector_29" d="M75.046 80.6446V82.9237L71.9453 83.9755L51.1194 91.0417C51.0058 91.0806 50.8892 91.0978 50.7755 91.0978C50.3252 91.0978 49.9036 90.8129 49.7525 90.3626C49.5626 89.7971 49.8662 89.1856 50.4317 88.9957L71.9453 81.6964L75.046 80.6446Z" fill="var(--fill-0, #DDF4FE)"/>
<g id="Group_6">
<path id="Vector_30" d="M75.046 49.577V51.8561L71.9453 52.9079V50.6288L75.046 49.577Z" fill="var(--fill-0, #C8EFFE)"/>
<path id="Vector_31" d="M71.9453 58.3957L75.046 57.3439V59.623L71.9453 60.6748V58.3957Z" fill="var(--fill-0, #C8EFFE)"/>
<path id="Vector_32" d="M71.9453 66.1626L75.046 65.1108V67.3899L71.9453 68.4417V66.1626Z" fill="var(--fill-0, #C8EFFE)"/>
<path id="Vector_33" d="M71.9453 73.9295L75.046 72.8777V75.1568L71.9453 76.2086V73.9295Z" fill="var(--fill-0, #C8EFFE)"/>
<path id="Vector_34" d="M71.9453 81.6964L75.046 80.6446V82.9237L71.9453 83.9755V81.6964Z" fill="var(--fill-0, #C8EFFE)"/>
</g>
</g>
<g id="Group_7">
<path id="Vector_35" d="M58.2489 96.682V109.138H56.0906V97.2834L58.2489 96.682Z" fill="var(--fill-0, #26A6FE)"/>
</g>
</g>
</g>
</svg>
