<svg preserveAspectRatio="none" width="100%" height="100%" overflow="visible" style="display: block;" viewBox="0 0 140 140" fill="none" xmlns="http://www.w3.org/2000/svg">
<g id="insurance-img">
<circle id="Ellipse 1" cx="70" cy="70" r="70" fill="var(--fill-0, white)"/>
<g id="Group 13">
<path id="Vector" d="M91.2801 105.663H52.4601C51.5237 105.663 50.6259 105.291 49.9645 104.628L41.4147 96.0645C40.7546 95.4034 40.3838 94.5072 40.3838 93.5729V37.5256C40.3838 37.136 40.6996 36.8203 41.089 36.8203H91.2799C91.6695 36.8203 91.9852 37.1361 91.9852 37.5256V104.958C91.9853 105.347 91.6695 105.663 91.2801 105.663Z" fill="var(--fill-0, #4596B7)"/>
<path id="Vector_2" d="M64.9418 32.6404C64.9418 30.5858 63.2397 28.9288 61.1687 29.0024C59.196 29.0724 57.6611 30.7537 57.6611 32.7275V35.0699H64.9418V32.6404Z" fill="var(--fill-0, #FBC96D)"/>
<path id="Vector_3" d="M85.3389 43.7794L86.4691 109.194C86.4691 109.584 86.154 109.899 85.7635 109.899L80.5044 110.546H50.0257C49.5515 110.546 49.0889 110.444 48.6655 110.25L47.9596 99.1559C47.9596 98.7932 47.666 98.4995 47.3033 98.4995L35.7953 97.3638C35.6016 96.9422 35.5 96.4778 35.5 96.0052V42.4082C35.5 42.0193 35.8166 41.7026 36.2056 41.7026H83.3283L84.6335 43.0738C85.0239 43.0739 85.3389 43.3906 85.3389 43.7794Z" fill="var(--fill-0, #B2E3F0)"/>
<path id="Vector_4" d="M72.703 44.439H49.8985C49.536 44.439 49.2422 44.1452 49.2422 43.7827V36.3357C49.2422 34.9765 50.344 33.8745 51.7034 33.8745H70.8982C72.2574 33.8745 73.3594 34.9763 73.3594 36.3357V43.7828C73.3594 44.1453 73.0655 44.439 72.703 44.439Z" fill="var(--fill-0, #FFDA8F)"/>
<path id="Vector_5" d="M86.3967 41.7031H83.3285V106.927C83.3285 108.925 81.7075 110.546 79.709 110.546H86.3967C86.7864 110.546 87.1023 110.231 87.1023 109.841V100.951V62.2849V42.4085C87.1023 42.0198 86.7872 41.7031 86.3967 41.7031Z" fill="var(--fill-0, #C0ECFC)"/>
<path id="Vector_6" d="M79.3559 63.3473H42.4728C42.1103 63.3473 41.8164 63.0534 41.8164 62.6909V55.1275C41.8164 54.765 42.1103 54.4712 42.4728 54.4712H79.3559C79.7184 54.4712 80.0122 54.765 80.0122 55.1275V62.6909C80.0122 63.0534 79.7184 63.3473 79.3559 63.3473Z" fill="var(--fill-0, white)"/>
<path id="Vector_7" d="M56.4905 103.437H42.8263C42.4638 103.437 42.1699 103.143 42.1699 102.781V92.4288C42.1699 92.0663 42.4638 91.7725 42.8263 91.7725H56.4905C56.853 91.7725 57.1468 92.0663 57.1468 92.4288V102.781C57.1467 103.143 56.8528 103.437 56.4905 103.437Z" fill="var(--fill-0, #FFDA8F)"/>
<path id="Vector_8" d="M79.8821 103.437H66.2179C65.8554 103.437 65.5615 103.143 65.5615 102.781V92.4288C65.5615 92.0663 65.8554 91.7725 66.2179 91.7725H79.8821C80.2446 91.7725 80.5384 92.0663 80.5384 92.4288V102.781C80.5383 103.143 80.2444 103.437 79.8821 103.437Z" fill="var(--fill-0, #FFDA8F)"/>
<g id="Group">
<path id="Vector_9" d="M46.4719 76.2163C46.2001 76.1203 45.9395 76.0331 45.691 75.95C44.7994 75.652 44.0953 75.4165 43.7745 75.0468C43.4235 74.6424 43.2994 74.1431 43.4343 73.6769C43.5046 73.434 43.7107 72.9999 44.3019 72.8218C45.4496 72.4759 46.1566 73.1803 46.2333 73.2619C46.7 73.7562 47.479 73.7787 47.9729 73.312C48.4673 72.8455 48.4897 72.0667 48.0232 71.5725C47.59 71.1135 46.9282 70.6733 46.1183 70.4398V69.4198C46.1183 68.7402 45.5674 68.1893 44.8878 68.1893C44.2081 68.1893 43.6573 68.7402 43.6573 69.4198V70.4482C43.6355 70.4544 43.6142 70.4586 43.5923 70.4651C42.3642 70.8349 41.4213 71.7799 41.0705 72.9925C40.7045 74.2573 41.0206 75.6281 41.9162 76.6597C42.6777 77.5373 43.7127 77.8832 44.9111 78.2839C45.147 78.3628 45.3942 78.4454 45.6522 78.5365C46.7917 78.9393 46.7672 79.8599 46.704 80.2369C46.5743 81.0079 45.9258 81.8412 44.808 81.8485C43.6731 81.8556 43.3504 81.8046 42.4902 81.2419C41.9213 80.8697 41.1589 81.0293 40.7868 81.598C40.4148 82.1668 40.5742 82.9293 41.1429 83.3014C42.0968 83.9254 42.7982 84.1756 43.6576 84.2653V85.1556C43.6576 85.8352 44.2085 86.3861 44.8882 86.3861C45.5679 86.3861 46.1187 85.8352 46.1187 85.1556V84.1132C47.8058 83.5911 48.885 82.1082 49.1309 80.6449C49.4617 78.6753 48.3934 76.8954 46.4719 76.2163Z" fill="var(--fill-0, #52D8A4)"/>
<g id="Group_2">
<path id="Vector_10" d="M80.0119 79.7486H53.6751C52.9953 79.7486 52.4446 80.2995 52.4446 80.9791C52.4446 81.6587 52.9955 82.2096 53.6751 82.2096H80.0119C80.6916 82.2096 81.2424 81.6587 81.2424 80.9791C81.2424 80.2995 80.6915 79.7486 80.0119 79.7486Z" fill="var(--fill-0, white)"/>
<path id="Vector_11" d="M53.6751 74.8262H80.0119C80.6917 74.8262 81.2424 74.2753 81.2424 73.5957C81.2424 72.9161 80.6915 72.3652 80.0119 72.3652H53.6751C52.9954 72.3652 52.4446 72.9161 52.4446 73.5957C52.4446 74.2753 52.9954 74.8262 53.6751 74.8262Z" fill="var(--fill-0, white)"/>
</g>
</g>
<g id="Group_3">
<path id="Vector_12" d="M89.2029 90.9028L87.021 90.4532L83.4432 88.1636C78.1215 84.7587 74.9019 78.8766 74.9019 72.5588V60.4128C74.9019 60.092 75.1338 59.8181 75.4503 59.7654L77.5171 59.4209C81.116 58.8211 84.5657 57.534 87.6782 55.6301L89.2148 54.6901C89.4251 54.5616 89.6896 54.5616 89.8998 54.6901L91.4365 55.6301C94.4513 57.4743 97.7829 58.7397 101.26 59.3624C101.372 59.3825 103.308 59.9961 103.308 59.9961C103.625 60.0489 103.857 60.3226 103.857 60.6436L103.845 72.4252C103.845 78.7269 100.917 83.7867 95.6171 87.1959L89.9118 90.902C89.6958 91.0408 89.419 91.0411 89.2029 90.9028Z" fill="var(--fill-0, #52D8A4)"/>
<path id="Vector_13" d="M104.213 60.4125V72.5886C104.213 78.8892 101.009 84.7598 95.7088 88.1693L89.9514 91.8725C89.7348 92.012 89.4575 92.012 89.2426 91.8741L87.021 90.4533L94.1123 85.6852C98.5867 82.8056 101.26 77.9097 101.26 72.5886V59.3624C101.371 59.3838 101.484 59.4035 101.597 59.4215L103.665 59.766C103.98 59.8186 104.213 60.0925 104.213 60.4125Z" fill="var(--fill-0, #1FC091)"/>
<path id="Vector_14" d="M86.2388 83.794C82.4072 81.3425 80.0892 77.1074 80.0892 72.5588V64.7279C80.0892 64.4221 80.301 64.1594 80.5987 64.0892C83.6237 63.3742 86.517 62.2482 89.2368 60.7273C89.4364 60.6157 89.6783 60.6157 89.8779 60.7273C92.5976 62.2484 95.491 63.3742 98.516 64.0892C98.8135 64.1596 99.0255 64.4222 99.0255 64.7279V72.5883C99.0255 77.1464 96.7368 81.3398 92.9034 83.8058L89.9434 85.7097C89.7275 85.8484 89.4507 85.8489 89.2346 85.7105L86.2388 83.794Z" fill="var(--fill-0, #1FC091)"/>
<g id="Group_4">
<path id="Vector_15" d="M88.5852 77.411C88.5816 77.411 88.5779 77.411 88.5741 77.411C88.2439 77.408 87.9287 77.2724 87.6995 77.0347L84.2394 73.4462C83.7675 72.9569 83.7818 72.1779 84.271 71.7061C84.7604 71.2344 85.5394 71.2489 86.011 71.7378L88.6015 74.4242L93.8289 69.1967C94.3095 68.7162 95.0887 68.716 95.5692 69.1967C96.0499 69.6772 96.0499 70.4564 95.5694 70.937L89.4558 77.0507C89.2246 77.2815 88.9114 77.411 88.5852 77.411Z" fill="var(--fill-0, #DFF8FF)"/>
</g>
</g>
<path id="Vector_16" d="M48.665 98.0206V110.251C48.309 110.09 47.9841 109.864 47.7035 109.583L36.4594 98.3258C36.1805 98.0451 35.9556 97.7204 35.7949 97.3643H48.0088C48.3713 97.3643 48.665 97.658 48.665 98.0206Z" fill="var(--fill-0, #4596B7)"/>
</g>
</g>
</svg>
