<svg preserveAspectRatio="none" width="100%" height="100%" overflow="visible" style="display: block;" viewBox="0 0 857 118" fill="none" xmlns="http://www.w3.org/2000/svg">
<g id="Group 6">
<g id="Union">
<path d="M125.961 82.0801H88.578V72.6963H125.961V82.0801Z" fill="var(--fill-0, white)"/>
<path d="M125.961 82.0801H88.578V72.6963H125.961V82.0801Z" stroke="var(--stroke-0, white)"/>
</g>
<g id="Union_2">
<path fill-rule="evenodd" clip-rule="evenodd" d="M702.709 6.10352e-05C710.991 6.69271e-05 718.569 1.7748 725.408 5.35065C732.347 8.82004 737.859 13.6668 741.899 19.8868C745.957 26.0283 747.985 32.8916 747.985 40.4278V42.2276H738.785L738.756 40.4581C738.657 34.533 737.033 29.2415 733.896 24.5362C730.846 19.9605 726.73 16.3416 721.505 13.6797L720.983 13.419C715.633 10.744 709.555 9.38581 702.709 9.3858C696.144 9.38584 690.1 11.0232 684.543 14.2979C678.968 17.5835 674.547 22.0038 671.262 27.5792C667.987 33.1363 666.35 39.1803 666.35 45.7452V71.3936C666.35 77.9583 667.987 84.0016 671.262 89.5587C674.649 95.1314 679.119 99.5493 684.687 102.833C690.355 106.115 696.457 107.752 703.021 107.752C709.867 107.752 716.004 106.395 721.465 103.714C726.928 101.032 731.153 97.3341 734.195 92.6241L734.202 92.6133L734.209 92.6016C737.346 87.8964 738.97 82.6057 739.068 76.6807L739.098 74.9102H748.298V76.71C748.298 84.2461 746.272 91.1563 742.222 97.3956L742.221 97.3946C738.283 103.517 732.825 108.362 725.897 111.934L725.888 111.939C719.041 115.416 711.407 117.139 703.021 117.139C694.782 117.139 687.118 115.074 680.062 110.949C673.026 106.835 667.435 101.301 663.315 94.3633L663.309 94.3526C659.184 87.2976 657.12 79.6332 657.12 71.3936V45.7452C657.12 37.5145 659.128 29.9046 663.148 22.9503L663.152 22.9424C667.266 15.9054 672.801 10.3149 679.739 6.19537L679.75 6.18854C686.805 2.06415 694.469 0.000101807 702.709 6.10352e-05ZM700.134 115.249C700.845 115.293 701.56 115.322 702.28 115.333L703.021 115.339C702.05 115.339 701.088 115.309 700.134 115.249ZM715.32 113.926C714.864 114.037 714.405 114.142 713.942 114.239L714.634 114.088C714.863 114.036 715.092 113.981 715.32 113.926ZM722.258 105.329C722.079 105.417 721.898 105.504 721.718 105.589C720.711 106.064 719.684 106.496 718.636 106.886C719.872 106.426 721.079 105.908 722.258 105.329ZM669.913 100.379C670.206 100.71 670.506 101.035 670.809 101.357C670.344 100.863 669.889 100.36 669.447 99.8448L669.913 100.379ZM666.014 95.2852C666.41 95.887 666.818 96.4768 667.239 97.0547C667.38 97.2476 667.522 97.4388 667.665 97.629C667.951 98.0088 668.243 98.3828 668.54 98.752C667.5 97.4593 666.527 96.1022 665.622 94.6797L666.014 95.2852ZM664.165 92.2071C664.39 92.6215 664.622 93.0342 664.862 93.4444C664.986 93.6528 665.112 93.8597 665.238 94.0655L664.862 93.4444C664.738 93.2325 664.617 93.0197 664.497 92.8067L664.165 92.2071ZM663.832 91.584C663.928 91.7682 664.027 91.9515 664.126 92.1348C664.016 91.9313 663.907 91.7271 663.801 91.5225L663.832 91.584ZM661.809 87.1319C661.85 87.2391 661.894 87.3453 661.937 87.4522C661.867 87.276 661.797 87.0998 661.729 86.9229L661.809 87.1319ZM667.453 85.9962C667.462 86.018 667.472 86.0397 667.481 86.0616C667.414 85.9028 667.347 85.7436 667.282 85.584L667.453 85.9962ZM660.893 84.5186C660.927 84.6266 660.962 84.7341 660.997 84.8419C660.93 84.6349 660.864 84.4277 660.801 84.2198L660.893 84.5186ZM746.096 37.7618C746.126 38.2009 746.148 38.6426 746.163 39.087L746.135 38.4219C746.123 38.2012 746.111 37.9812 746.096 37.7618ZM666.989 32.2921C666.936 32.4314 666.884 32.5711 666.832 32.711C666.904 32.5168 666.978 32.3231 667.053 32.1299L666.989 32.2921ZM668.789 28.3214C668.606 28.6695 668.429 29.0194 668.258 29.3712C668.435 29.0078 668.618 28.6467 668.808 28.2872L668.789 28.3214ZM664.706 23.8506C664.586 24.059 664.467 24.268 664.351 24.4776C664.117 24.8974 663.891 25.3195 663.672 25.7442C663.453 26.1685 663.242 26.5953 663.039 27.0245C663.548 25.9514 664.103 24.8932 664.706 23.8506ZM670.915 24.7452C670.499 25.3703 670.097 26.0107 669.711 26.6661L670.027 26.1387C670.315 25.6662 670.611 25.2016 670.915 24.7452ZM741.1 21.9825C741.108 21.9964 741.116 22.0105 741.125 22.0245C741.004 21.8252 740.881 21.6265 740.755 21.4288L741.1 21.9825ZM740.033 20.3262C740.052 20.3545 740.071 20.3829 740.09 20.4112C739.948 20.1993 739.805 19.9888 739.659 19.7803L740.033 20.3262ZM680.98 14.4473C680.702 14.642 680.427 14.8411 680.154 15.0421C680.448 14.8258 680.744 14.6124 681.045 14.4034L680.98 14.4473ZM677.63 9.70221C677.435 9.83981 677.241 9.97885 677.048 10.1192C676.855 10.2595 676.664 10.4009 676.474 10.544C677.044 10.1147 677.626 9.69855 678.22 9.29401L677.63 9.70221ZM703.371 7.59088C703.978 7.59845 704.579 7.61616 705.175 7.64459C704.363 7.60583 703.541 7.586 702.709 7.586L703.371 7.59088ZM723.973 6.63678C723.783 6.54135 723.593 6.44716 723.402 6.35455L723.363 6.336C723.567 6.4347 723.77 6.53486 723.973 6.63678Z" fill="var(--fill-0, white)"/>
<path fill-rule="evenodd" clip-rule="evenodd" d="M228 115.054H217.851L203.149 79.084H151.921L137.063 115.054H127.075L173.281 2.60651H181.794L228 115.054ZM155.742 69.8536H199.326L177.465 16.6602L155.742 69.8536Z" fill="var(--fill-0, white)"/>
<path fill-rule="evenodd" clip-rule="evenodd" d="M856.686 115.054H846.536L831.835 79.084H780.606L765.749 115.054H755.761L801.967 2.60651H810.479L856.686 115.054ZM784.428 69.8536H828.012L806.15 16.6602L784.428 69.8536Z" fill="var(--fill-0, white)"/>
<path d="M291.308 67.5792L328.105 2.34576H336.743V114.793H327.357V22.543L295.019 79.6046H287.447L254.639 21.7569V114.793H245.253V2.34576H254.357L291.308 67.5792Z" fill="var(--fill-0, white)"/>
<path fill-rule="evenodd" clip-rule="evenodd" d="M440.362 11.7315H369.518V52.2335H431.136V61.6202H369.518V105.406H440.362V114.793H360.132V2.34576H440.362V11.7315Z" fill="var(--fill-0, white)"/>
<path fill-rule="evenodd" clip-rule="evenodd" d="M504.491 2.34576C509.148 2.34579 513.177 2.66263 516.554 3.31549C519.794 3.82615 522.781 4.6708 525.501 5.86334L526.045 6.10846L526.052 6.11139L526.663 6.40338C532.939 9.46209 537.905 13.9251 541.522 19.7764C545.352 25.8027 547.265 32.493 547.265 39.8028C547.265 48.3359 544.629 56.0214 539.382 62.7989L539.381 62.7979C534.771 68.7798 528.951 72.9729 521.958 75.3526L550.221 114.793H538.907L512.186 77.2872L508.145 77.4151H470.634V114.793H461.248V2.34576H504.491ZM470.634 68.0294H509.652C514.757 68.0292 519.445 66.7567 523.75 64.213C528.075 61.6568 531.506 58.226 534.062 53.9005C536.606 49.5956 537.879 44.9078 537.879 39.8028C537.879 34.0969 536.36 28.9689 533.328 24.3721L533.32 24.3614L533.313 24.3497C530.396 19.7783 526.315 16.3634 521.011 14.0997L520.654 13.9571C516.918 12.5097 511.569 11.7315 504.491 11.7315H470.634V68.0294ZM524.665 65.7628C524.235 66.0169 523.801 66.259 523.363 66.4893C523.072 66.6429 522.778 66.7916 522.483 66.9346C523.22 66.5773 523.948 66.1862 524.665 65.7628ZM537.022 62.8643C537 62.8918 536.976 62.9189 536.953 62.9464C537.135 62.7292 537.316 62.5098 537.494 62.2872L537.022 62.8643ZM537.958 61.6973L538.405 61.1085C538.407 61.1064 538.408 61.1037 538.409 61.1016C538.261 61.3007 538.111 61.4998 537.958 61.6973ZM537.543 50.9288C537.554 50.9012 537.567 50.8743 537.578 50.8467L537.701 50.5352C537.65 50.6668 537.596 50.7978 537.543 50.9288ZM545.465 39.8028C545.465 40.3067 545.455 40.8073 545.436 41.3047C545.445 41.0582 545.453 40.8107 545.458 40.5626L545.465 39.8028ZM538.144 30.1426C538.2 30.3114 538.256 30.4806 538.31 30.6505C538.202 30.3106 538.089 29.9731 537.969 29.6378L538.144 30.1426ZM537.59 28.6387C537.656 28.8042 537.721 28.9702 537.784 29.1368L537.59 28.6387C537.523 28.4731 537.456 28.3081 537.387 28.1436L537.59 28.6387ZM530.783 18.3975C531.8 19.3881 532.738 20.4566 533.599 21.6036C533.706 21.7468 533.812 21.8915 533.917 22.0372C534.232 22.4745 534.537 22.9225 534.83 23.3819C535.032 23.6882 535.228 23.9969 535.417 24.3077L535.129 23.8428C535.031 23.6885 534.931 23.5351 534.83 23.3819C533.657 21.5444 532.308 19.8832 530.783 18.3975ZM524.729 13.9161C524.89 14.0057 525.05 14.0964 525.209 14.1885C524.891 14.0044 524.569 13.8248 524.241 13.6505L524.729 13.9161ZM522.735 12.8995C523.077 13.059 523.414 13.2234 523.746 13.3926L523.244 13.1417C523.076 13.0595 522.906 12.9792 522.735 12.8995ZM516.22 5.08405C519.556 5.60533 522.579 6.49214 525.29 7.74323L525.291 7.74225C522.919 6.64761 520.308 5.8329 517.457 5.29694C517.05 5.22038 516.637 5.14921 516.22 5.08405Z" fill="var(--fill-0, white)"/>
<path d="M639.988 11.7315H607.459V105.406H639.988V114.793H565.856V105.406H598.229V11.7315H565.856V2.34576H639.988V11.7315Z" fill="var(--fill-0, white)"/>
</g>
<g id="Vector">
<path d="M16.7953 41.4186H25.8659C25.9702 41.4186 26.0223 41.4186 26.0223 41.4186C26.0223 41.4186 26.0223 41.4707 26.0223 41.575V50.6456C26.0223 50.7498 26.0223 50.8019 26.0223 50.8019C26.0223 50.8019 25.9702 50.8019 25.8659 50.8019H16.7953C16.6911 50.8019 16.6389 50.8019 16.6389 50.8019C16.6389 50.8019 16.6389 50.7498 16.6389 50.6456V41.575C16.6389 41.4707 16.6389 41.4186 16.6389 41.4186C16.6389 41.4186 16.6911 41.4186 16.7953 41.4186ZM32.4343 41.4186H41.5048C41.6091 41.4186 41.6612 41.4186 41.6612 41.4186C41.6612 41.4186 41.6612 41.4707 41.6612 41.575V50.6456C41.6612 50.7498 41.6612 50.8019 41.6612 50.8019C41.6612 50.8019 41.6091 50.8019 41.5048 50.8019H32.4343C32.33 50.8019 32.2779 50.8019 32.2779 50.8019C32.2779 50.8019 32.2779 50.7498 32.2779 50.6456V41.575C32.2779 41.4707 32.2779 41.4186 32.2779 41.4186C32.2779 41.4186 32.33 41.4186 32.4343 41.4186ZM48.0732 41.4186H57.1438C57.248 41.4186 57.3002 41.4186 57.3002 41.4186C57.3002 41.4186 57.3002 41.4707 57.3002 41.575V50.6456C57.3002 50.7498 57.3002 50.8019 57.3002 50.8019C57.3002 50.8019 57.248 50.8019 57.1438 50.8019H48.0732C47.9689 50.8019 47.9168 50.8019 47.9168 50.8019C47.9168 50.8019 47.9168 50.7498 47.9168 50.6456V41.575C47.9168 41.4707 47.9168 41.4186 47.9168 41.4186C47.9168 41.4186 47.9689 41.4186 48.0732 41.4186ZM1.15639 57.0575H10.227C10.3312 57.0575 10.3834 57.0575 10.3834 57.0575C10.3834 57.0575 10.3834 57.1096 10.3834 57.2139V66.2845C10.3834 66.3887 10.3834 66.4409 10.3834 66.4409C10.3834 66.4409 10.3312 66.4409 10.227 66.4409H1.15639C1.05213 66.4409 1 66.4409 1 66.4409C1 66.4409 1 66.3887 1 66.2845V57.2139C1 57.1096 1 57.0575 1 57.0575C1 57.0575 1.05213 57.0575 1.15639 57.0575ZM63.7121 57.0575H72.7827C72.887 57.0575 72.9391 57.0575 72.9391 57.0575C72.9391 57.0575 72.9391 57.1096 72.9391 57.2139V66.2845C72.9391 66.3887 72.9391 66.4409 72.9391 66.4409C72.9391 66.4409 72.887 66.4409 72.7827 66.4409H63.7121C63.6079 66.4409 63.5557 66.4409 63.5557 66.4409C63.5557 66.4409 63.5557 66.3887 63.5557 66.2845V57.2139C63.5557 57.1096 63.5557 57.0575 63.5557 57.0575C63.5557 57.0575 63.6079 57.0575 63.7121 57.0575ZM1.15639 72.6965H10.227C10.3312 72.6965 10.3834 72.6965 10.3834 72.6965C10.3834 72.6965 10.3834 72.7486 10.3834 72.8528V81.9234C10.3834 82.0277 10.3834 82.0798 10.3834 82.0798C10.3834 82.0798 10.3312 82.0798 10.227 82.0798H1.15639C1.05213 82.0798 1 82.0798 1 82.0798C1 82.0798 1 82.0277 1 81.9234V72.8528C1 72.7486 1 72.6965 1 72.6965C1 72.6965 1.05213 72.6965 1.15639 72.6965ZM16.7953 72.6965H25.8659C25.9702 72.6965 26.0223 72.6965 26.0223 72.6965C26.0223 72.6965 26.0223 72.7486 26.0223 72.8528V81.9234C26.0223 82.0277 26.0223 82.0798 26.0223 82.0798C26.0223 82.0798 25.9702 82.0798 25.8659 82.0798H16.7953C16.6911 82.0798 16.6389 82.0798 16.6389 82.0798C16.6389 82.0798 16.6389 82.0277 16.6389 81.9234V72.8528C16.6389 72.7486 16.6389 72.6965 16.6389 72.6965C16.6389 72.6965 16.6911 72.6965 16.7953 72.6965ZM32.4343 72.6965H41.5048C41.6091 72.6965 41.6612 72.6965 41.6612 72.6965C41.6612 72.6965 41.6612 72.7486 41.6612 72.8528V81.9234C41.6612 82.0277 41.6612 82.0798 41.6612 82.0798C41.6612 82.0798 41.6091 82.0798 41.5048 82.0798H32.4343C32.33 82.0798 32.2779 82.0798 32.2779 82.0798C32.2779 82.0798 32.2779 82.0277 32.2779 81.9234V72.8528C32.2779 72.7486 32.2779 72.6965 32.2779 72.6965C32.2779 72.6965 32.33 72.6965 32.4343 72.6965ZM48.0732 72.6965H57.1438C57.248 72.6965 57.3002 72.6965 57.3002 72.6965C57.3002 72.6965 57.3002 72.7486 57.3002 72.8528V81.9234C57.3002 82.0277 57.3002 82.0798 57.3002 82.0798C57.3002 82.0798 57.248 82.0798 57.1438 82.0798H48.0732C47.9689 82.0798 47.9168 82.0798 47.9168 82.0798C47.9168 82.0798 47.9168 82.0277 47.9168 81.9234V72.8528C47.9168 72.7486 47.9168 72.6965 47.9168 72.6965C47.9168 72.6965 47.9689 72.6965 48.0732 72.6965ZM63.7121 72.6965H72.7827C72.887 72.6965 72.9391 72.6965 72.9391 72.6965C72.9391 72.6965 72.9391 72.7486 72.9391 72.8528V81.9234C72.9391 82.0277 72.9391 82.0798 72.9391 82.0798C72.9391 82.0798 72.887 82.0798 72.7827 82.0798H63.7121C63.6079 82.0798 63.5557 82.0798 63.5557 82.0798C63.5557 82.0798 63.5557 82.0277 63.5557 81.9234V72.8528C63.5557 72.7486 63.5557 72.6965 63.5557 72.6965C63.5557 72.6965 63.6079 72.6965 63.7121 72.6965ZM1.15639 88.3354H10.227C10.3312 88.3354 10.3834 88.3354 10.3834 88.3354C10.3834 88.3354 10.3834 88.3875 10.3834 88.4918V97.5624C10.3834 97.6666 10.3834 97.7188 10.3834 97.7188C10.3834 97.7188 10.3312 97.7188 10.227 97.7188H1.15639C1.05213 97.7188 1 97.7188 1 97.7188C1 97.7188 1 97.6666 1 97.5624V88.4918C1 88.3875 1 88.3354 1 88.3354C1 88.3354 1.05213 88.3354 1.15639 88.3354ZM16.7953 103.974H25.8659C25.9702 103.974 26.0223 103.974 26.0223 103.974C26.0223 103.974 26.0223 104.026 26.0223 104.131V113.201C26.0223 113.306 26.0223 113.358 26.0223 113.358C26.0223 113.358 25.9702 113.358 25.8659 113.358H16.7953C16.6911 113.358 16.6389 113.358 16.6389 113.358C16.6389 113.358 16.6389 113.306 16.6389 113.201V104.131C16.6389 104.026 16.6389 103.974 16.6389 103.974C16.6389 103.974 16.6911 103.974 16.7953 103.974ZM32.4343 103.974H41.5048C41.6091 103.974 41.6612 103.974 41.6612 103.974C41.6612 103.974 41.6612 104.026 41.6612 104.131V113.201C41.6612 113.306 41.6612 113.358 41.6612 113.358C41.6612 113.358 41.6091 113.358 41.5048 113.358H32.4343C32.33 113.358 32.2779 113.358 32.2779 113.358C32.2779 113.358 32.2779 113.306 32.2779 113.201V104.131C32.2779 104.026 32.2779 103.974 32.2779 103.974C32.2779 103.974 32.33 103.974 32.4343 103.974ZM48.0732 103.974H57.1438C57.248 103.974 57.3002 103.974 57.3002 103.974C57.3002 103.974 57.3002 104.026 57.3002 104.131V113.201C57.3002 113.306 57.3002 113.358 57.3002 113.358C57.3002 113.358 57.248 113.358 57.1438 113.358H48.0732C47.9689 113.358 47.9168 113.358 47.9168 113.358C47.9168 113.358 47.9168 113.306 47.9168 113.201V104.131C47.9168 104.026 47.9168 103.974 47.9168 103.974C47.9168 103.974 47.9689 103.974 48.0732 103.974Z" fill="var(--fill-0, white)"/>
<path d="M27.0225 102.974V114.358H15.6387V102.974H16.7949L16.7953 103.974H16.6389V113.358H26.0223V103.974H25.8659L25.8662 102.974H27.0225ZM42.6611 102.974V114.358H31.2783V102.974H32.4346L32.4343 103.974H32.2779V113.358H41.6612V103.974H41.5048L41.5049 102.974H42.6611ZM58.2998 102.974V114.358H46.917V102.974H48.0732L48.0732 103.974H47.9168V113.358H57.3002V103.974H57.1438L57.1436 102.974H58.2998ZM57.1436 102.974L57.1438 103.974H48.0732L48.0732 102.974H57.1436ZM41.5049 102.974L41.5048 103.974H32.4343L32.4346 102.974H41.5049ZM25.8662 102.974L25.8659 103.974H16.7953L16.7949 102.974H25.8662ZM11.3838 87.3356V98.7184H0V87.3356H1.15625L1.15639 88.3354H1V97.7188H10.3834V88.3354H10.227L10.2266 87.3356H11.3838ZM10.2266 87.3356L10.227 88.3354H1.15639L1.15625 87.3356H10.2266ZM11.3838 71.6969V83.0797H0V71.6969H1.15625L1.15639 72.6965H1V82.0798H10.3834V72.6965H10.227L10.2266 71.6969H11.3838ZM27.0225 71.6969V83.0797H15.6387V71.6969H16.7949L16.7953 72.6965H16.6389V82.0798H26.0223V72.6965H25.8659L25.8662 71.6969H27.0225ZM42.6611 71.6969V83.0797H31.2783V71.6969H32.4346L32.4343 72.6965H32.2779V82.0798H41.6612V72.6965H41.5048L41.5049 71.6969H42.6611ZM58.2998 71.6969V83.0797H46.917V71.6969H48.0732L48.0732 72.6965H47.9168V82.0798H57.3002V72.6965H57.1438L57.1436 71.6969H58.2998ZM73.9395 71.6969V83.0797H62.5557V71.6969H63.7119L63.7121 72.6965H63.5557V82.0798H72.9391V72.6965H72.7827L72.7832 71.6969H73.9395ZM72.7832 71.6969L72.7827 72.6965H63.7121L63.7119 71.6969H72.7832ZM57.1436 71.6969L57.1438 72.6965H48.0732L48.0732 71.6969H57.1436ZM41.5049 71.6969L41.5048 72.6965H32.4343L32.4346 71.6969H41.5049ZM25.8662 71.6969L25.8659 72.6965H16.7953L16.7949 71.6969H25.8662ZM10.2266 71.6969L10.227 72.6965H1.15639L1.15625 71.6969H10.2266ZM11.3838 56.0573V67.441H0V56.0573H1.15625L1.15639 57.0575H1V66.4409H10.3834V57.0575C10.3834 57.0575 10.3312 57.0575 10.227 57.0575L10.2266 56.0573H11.3838ZM73.9395 56.0573V67.441H62.5557V56.0573H63.7119L63.7121 57.0575H63.5557V66.4409H72.9391V57.0575H72.7827L72.7832 56.0573H73.9395ZM72.7832 56.0573L72.7827 57.0575H63.7121L63.7119 56.0573H72.7832ZM10.2266 56.0573L10.227 57.0575H1.15639L1.15625 56.0573H10.2266ZM27.0225 40.4186V51.8024H15.6387V40.4186H16.7949L16.7953 41.4186H16.6389V50.8019H26.0223V41.4186C26.0223 41.4186 25.9702 41.4186 25.8659 41.4186L25.8662 40.4186H27.0225ZM42.6611 40.4186V51.8024H31.2783V40.4186H32.4346L32.4343 41.4186H32.2779V50.8019H41.6612V41.4186H41.5048L41.5049 40.4186H42.6611ZM58.2998 40.4186V51.8024H46.917V40.4186H48.0732L48.0732 41.4186H47.9168V50.8019H57.3002V41.4186H57.1438L57.1436 40.4186H58.2998ZM57.1436 40.4186L57.1438 41.4186H48.0732L48.0732 40.4186H57.1436ZM41.5049 40.4186L41.5048 41.4186H32.4343L32.4346 40.4186H41.5049ZM25.8662 40.4186L25.8659 41.4186H16.7953L16.7949 40.4186H25.8662Z" fill="var(--fill-0, white)"/>
</g>
</g>
</svg>
