<svg preserveAspectRatio="none" width="100%" height="100%" overflow="visible" style="display: block;" viewBox="0 0 58 58" fill="none" xmlns="http://www.w3.org/2000/svg">
<g id="03-Mobile Payment">
<path id="Vector" d="M36 2.38419e-07H4C1.79086 2.38419e-07 2.38419e-07 1.79086 2.38419e-07 4V54C2.38419e-07 56.2091 1.79086 58 4 58H36C38.2091 58 40 56.2091 40 54V4C40 1.79086 38.2091 2.38419e-07 36 2.38419e-07Z" fill="var(--fill-0, #BBDEFB)"/>
<path id="Vector_2" d="M40 4V54C40.0001 54.5253 39.8968 55.0455 39.6958 55.5309C39.4948 56.0163 39.2002 56.4573 38.8287 56.8288C38.4573 57.2002 38.0163 57.4948 37.5309 57.6958C37.0455 57.8968 36.5253 58.0001 36 58H4C3.11336 58.0008 2.2517 57.7063 1.55095 57.1631C0.850201 56.6199 0.350261 55.8588 0.13 55H31C31.5253 55.0001 32.0455 54.8968 32.5309 54.6958C33.0163 54.4948 33.4573 54.2002 33.8287 53.8288C34.2002 53.4573 34.4948 53.0163 34.6958 52.5309C34.8968 52.0455 35.0001 51.5253 35 51V1C35.0031 0.662263 34.9593 0.325731 34.87 1.51347e-07H36C36.5253 -0.000144374 37.0455 0.10322 37.5309 0.304188C38.0163 0.505155 38.4573 0.799787 38.8287 1.17125C39.2002 1.54271 39.4948 1.98373 39.6958 2.4691C39.8968 2.95446 40.0001 3.47467 40 4Z" fill="var(--fill-0, #90CAF9)"/>
<path id="Vector_3" d="M40 50V54C40.0001 54.5253 39.8968 55.0455 39.6958 55.5309C39.4948 56.0163 39.2002 56.4573 38.8288 56.8288C38.4573 57.2002 38.0163 57.4948 37.5309 57.6958C37.0455 57.8968 36.5253 58.0001 36 58H4C3.47467 58.0001 2.95446 57.8968 2.4691 57.6958C1.98373 57.4948 1.54271 57.2002 1.17125 56.8288C0.799787 56.4573 0.505155 56.0163 0.304188 55.5309C0.10322 55.0455 -0.000144374 54.5253 1.51347e-07 54V50H40Z" fill="var(--fill-0, #64B5F6)"/>
<path id="Vector_4" d="M24 55H16C15.7348 55 15.4804 54.8946 15.2929 54.7071C15.1054 54.5196 15 54.2652 15 54C15 53.7348 15.1054 53.4804 15.2929 53.2929C15.4804 53.1054 15.7348 53 16 53H24C24.2652 53 24.5196 53.1054 24.7071 53.2929C24.8946 53.4804 25 53.7348 25 54C25 54.2652 24.8946 54.5196 24.7071 54.7071C24.5196 54.8946 24.2652 55 24 55Z" fill="var(--fill-0, #F5F5F5)"/>
<path id="Vector_5" d="M13 2.38419e-07H27V2C27 2.53043 26.7893 3.03914 26.4142 3.41421C26.0391 3.78929 25.5304 4 25 4H15C14.4696 4 13.9609 3.78929 13.5858 3.41421C13.2107 3.03914 13 2.53043 13 2V2.38419e-07Z" fill="var(--fill-0, #64B5F6)"/>
<path id="Vector_6" d="M27 2.38419e-07V2C26.9984 2.52995 26.7872 3.03776 26.4125 3.41249C26.0378 3.78723 25.53 3.99844 25 4H15C14.47 3.99844 13.9622 3.78723 13.5875 3.41249C13.2128 3.03776 13.0016 2.52995 13 2H20C20.53 1.99844 21.0378 1.78723 21.4125 1.41249C21.7872 1.03776 21.9984 0.529954 22 2.38419e-07H27Z" fill="var(--fill-0, #42A5F5)"/>
<path id="Vector_7" d="M35 50V51C35 52.0609 34.5786 53.0783 33.8284 53.8284C33.0783 54.5786 32.0609 55 31 55H0.1413C0.360736 55.8572 0.858901 56.617 1.55743 57.1601C2.25595 57.7032 3.1152 57.9987 4 58H36C36.5253 58.0001 37.0455 57.8968 37.5309 57.6958C38.0163 57.4948 38.4573 57.2002 38.8288 56.8288C39.2002 56.4573 39.4948 56.0163 39.6958 55.5309C39.8968 55.0455 40.0001 54.5253 40 54V50H35Z" fill="var(--fill-0, #42A5F5)"/>
<path id="Vector_8" d="M51 10H9C6.79086 10 5 11.7909 5 14V38C5 40.2091 6.79086 42 9 42H51C53.2091 42 55 40.2091 55 38V14C55 11.7909 53.2091 10 51 10Z" fill="var(--fill-0, #81C784)"/>
<path id="Vector_9" d="M55 14V38C55.0001 38.5253 54.8968 39.0455 54.6958 39.5309C54.4948 40.0163 54.2002 40.4573 53.8287 40.8288C53.4573 41.2002 53.0163 41.4948 52.5309 41.6958C52.0455 41.8968 51.5253 42.0001 51 42H9C8.11336 42.0008 7.2517 41.7063 6.55095 41.1631C5.8502 40.6199 5.35026 39.8588 5.13 39H46C46.5253 39.0001 47.0455 38.8968 47.5309 38.6958C48.0163 38.4948 48.4573 38.2002 48.8287 37.8288C49.2002 37.4573 49.4948 37.0163 49.6958 36.5309C49.8968 36.0455 50.0001 35.5253 50 35V11C50.0031 10.6623 49.9593 10.3257 49.87 10H51C51.5253 9.99986 52.0455 10.1032 52.5309 10.3042C53.0163 10.5052 53.4573 10.7998 53.8287 11.1713C54.2002 11.5427 54.4948 11.9837 54.6958 12.4691C54.8968 12.9545 55.0001 13.4747 55 14Z" fill="var(--fill-0, #66BB6A)"/>
<path id="Vector_10" d="M50 19V33C49.4747 32.9999 48.9545 33.1032 48.4691 33.3042C47.9837 33.5052 47.5427 33.7998 47.1712 34.1712C46.7998 34.5427 46.5052 34.9837 46.3042 35.4691C46.1032 35.9545 45.9999 36.4747 46 37H14C14.0001 36.4747 13.8968 35.9545 13.6958 35.4691C13.4948 34.9837 13.2002 34.5427 12.8287 34.1712C12.4573 33.7998 12.0163 33.5052 11.5309 33.3042C11.0455 33.1032 10.5253 32.9999 10 33V19C10.5253 19.0001 11.0455 18.8968 11.5309 18.6958C12.0163 18.4948 12.4573 18.2002 12.8287 17.8287C13.2002 17.4573 13.4948 17.0163 13.6958 16.5309C13.8968 16.0455 14.0001 15.5253 14 15H46C45.9999 15.5253 46.1032 16.0455 46.3042 16.5309C46.5052 17.0163 46.7998 17.4573 47.1712 17.8287C47.5427 18.2002 47.9837 18.4948 48.4691 18.6958C48.9545 18.8968 49.4747 19.0001 50 19Z" fill="var(--fill-0, #C8E6C9)"/>
<path id="Vector_11" d="M30 32C33.3137 32 36 29.3137 36 26C36 22.6863 33.3137 20 30 20C26.6863 20 24 22.6863 24 26C24 29.3137 26.6863 32 30 32Z" fill="var(--fill-0, #81C784)"/>
<path id="Vector_12" d="M30 20C29.1366 20.0006 28.2837 20.1885 27.5 20.5508C28.5441 21.0283 29.4291 21.7958 30.0496 22.7618C30.6701 23.7279 31 24.8518 31 26C31 27.1482 30.6701 28.2721 30.0496 29.2382C29.4291 30.2042 28.5441 30.9717 27.5 31.4492C28.3148 31.8232 29.203 32.0098 30.0994 31.9952C30.9957 31.9807 31.8775 31.7654 32.6797 31.3652C33.4819 30.965 34.1842 30.39 34.7349 29.6826C35.2856 28.9753 35.6708 28.1534 35.862 27.2776C36.0533 26.4017 36.0457 25.4941 35.84 24.6215C35.6343 23.749 35.2356 22.9336 34.6732 22.2355C34.1108 21.5373 33.3991 20.9741 32.5904 20.5872C31.7817 20.2003 30.8965 19.9997 30 20Z" fill="var(--fill-0, #66BB6A)"/>
<path id="Vector_13" d="M46 55C52.6274 55 58 49.6274 58 43C58 36.3726 52.6274 31 46 31C39.3726 31 34 36.3726 34 43C34 49.6274 39.3726 55 46 55Z" fill="var(--fill-0, #FFB74D)"/>
<path id="Vector_14" d="M46 31C45.1597 31.0007 44.3218 31.0895 43.5 31.2648C46.1878 31.8372 48.5976 33.315 50.3266 35.451C52.0555 37.587 52.9989 40.2517 52.9989 42.9998C52.9989 45.7479 52.0555 48.4126 50.3266 50.5486C48.5976 52.6846 46.1878 54.1624 43.5 54.7348C45.145 55.0855 46.8454 55.0865 48.4908 54.7377C50.1362 54.3889 51.6899 53.698 53.0511 52.71C54.4123 51.7219 55.5505 50.4587 56.392 49.0023C57.2335 47.546 57.7593 45.929 57.9355 44.2562C58.1117 42.5835 57.9343 40.8924 57.4147 39.2927C56.8951 37.693 56.0451 36.2203 54.9196 34.9704C53.7942 33.7204 52.4185 32.721 50.8819 32.037C49.3452 31.353 47.682 30.9997 46 31Z" fill="var(--fill-0, #FFA726)"/>
<path id="Vector_15" d="M44 48C43.8687 48.0002 43.7386 47.9743 43.6173 47.9241C43.4959 47.8738 43.3857 47.8 43.293 47.707L39.293 43.707C39.1108 43.5184 39.01 43.2658 39.0123 43.0036C39.0146 42.7414 39.1198 42.4906 39.3052 42.3052C39.4906 42.1198 39.7414 42.0146 40.0036 42.0123C40.2658 42.01 40.5184 42.1108 40.707 42.293L44 45.5859L51.293 38.293C51.4816 38.1108 51.7342 38.01 51.9964 38.0123C52.2586 38.0146 52.5094 38.1198 52.6948 38.3052C52.8802 38.4906 52.9854 38.7414 52.9877 39.0036C52.99 39.2658 52.8892 39.5184 52.707 39.707L44.707 47.707C44.6143 47.8 44.5041 47.8738 44.3827 47.9241C44.2614 47.9743 44.1313 48.0002 44 48Z" fill="var(--fill-0, #EEEEEE)"/>
</g>
</svg>
