<svg preserveAspectRatio="none" width="100%" height="100%" overflow="visible" style="display: block;" viewBox="0 0 15 15" fill="none" xmlns="http://www.w3.org/2000/svg">
<path id="e" d="M7.40137 2.25C7.96654 2.25002 8.52289 2.33258 9.06543 2.49414C9.67394 2.67535 10.2288 2.97121 10.7197 3.37207L10.7188 3.37305C11.2728 3.82253 11.6811 4.39118 11.9639 5.02637C12.2778 5.73171 12.3945 6.50748 12.3945 7.28809C12.3945 7.81089 12.2094 8.28967 11.9023 8.66504C12.1567 9.31803 12.1075 10.1205 11.5977 10.7793C11.4483 10.9723 11.2829 11.1496 11.1045 11.3105L11.0967 11.3164C10.6182 11.743 10.0614 12.0457 9.46582 12.249L9.45508 12.252C8.83732 12.4586 8.18548 12.5478 7.51953 12.5479C6.56818 12.5479 5.64673 12.3644 4.81738 11.9248L4.80664 11.9189C3.99981 11.4841 3.35042 10.8584 2.89844 10.0576L2.89258 10.0459C2.44522 9.2394 2.25001 8.3476 2.25 7.4248C2.25 6.50157 2.44555 5.61067 2.88867 4.80273L2.89062 4.79883C3.33001 4.00261 3.95632 3.36447 4.74805 2.91504C5.5619 2.45203 6.46555 2.25 7.40137 2.25Z" fill="var(--fill-0, #DDE4E4)" stroke="url(#paint0_linear_0_4)" stroke-width="3.5"/>
<defs>
<linearGradient id="paint0_linear_0_4" x1="5.1529" y1="10.0019" x2="11.5814" y2="9.47726" gradientUnits="userSpaceOnUse">
<stop stop-color="#0B1E46"/>
<stop offset="0.350962" stop-color="#896580"/>
<stop offset="0.432692" stop-color="#BF8398"/>
<stop offset="0.721154" stop-color="#DA1E3F"/>
</linearGradient>
</defs>
</svg>
