<svg preserveAspectRatio="none" width="100%" height="100%" overflow="visible" style="display: block;" viewBox="0 0 42 42" fill="none" xmlns="http://www.w3.org/2000/svg">
<g id="twitter">
<path id="Vector" d="M39.305 10.5C37.9575 11.1125 36.505 11.515 35 11.7075C36.54 10.78 37.73 9.31 38.29 7.5425C36.8375 8.4175 35.2275 9.03 33.53 9.38C32.1475 7.875 30.205 7 28 7C23.8875 7 20.5275 10.36 20.5275 14.5075C20.5275 15.1025 20.5975 15.68 20.72 16.2225C14.49 15.9075 8.9425 12.915 5.25 8.3825C4.6025 9.485 4.235 10.78 4.235 12.145C4.235 14.7525 5.5475 17.0625 7.5775 18.375C6.335 18.375 5.18 18.025 4.165 17.5C4.165 17.5 4.165 17.5 4.165 17.5525C4.165 21.1925 6.755 24.2375 10.185 24.92C9.555 25.095 8.89 25.1825 8.2075 25.1825C7.735 25.1825 7.2625 25.13 6.8075 25.0425C7.7525 28 10.5 30.205 13.8075 30.2575C11.2525 32.2875 8.015 33.4775 4.48 33.4775C3.885 33.4775 3.29 33.4425 2.695 33.3725C6.02 35.5075 9.975 36.75 14.21 36.75C28 36.75 35.5775 25.305 35.5775 15.3825C35.5775 15.05 35.5775 14.735 35.56 14.4025C37.03 13.3525 38.29 12.0225 39.305 10.5Z" fill="var(--fill-0, white)"/>
</g>
</svg>
