<svg preserveAspectRatio="none" width="100%" height="100%" overflow="visible" style="display: block;" viewBox="0 0 140 140" fill="none" xmlns="http://www.w3.org/2000/svg">
<g id="verify-img">
<circle id="Ellipse 1" cx="70" cy="70" r="70" fill="var(--fill-0, white)"/>
<g id="Group 15">
<path id="Vector" fill-rule="evenodd" clip-rule="evenodd" d="M39.9146 59.7487C39.9146 60.9672 38.9255 61.956 37.7073 61.956C36.4892 61.956 35.5 60.9672 35.5 59.7487V37.2073C35.5 35.9883 36.4883 35 37.7073 35H59.2927C60.5108 35 61.5 35.9889 61.5 37.2073C61.5 38.4255 60.5108 39.4146 59.2927 39.4146H39.9146V59.7487ZM105.499 59.7487C105.499 60.9672 104.51 61.956 103.292 61.956C102.074 61.956 101.084 60.9672 101.084 59.7487V39.4146H81.7066C80.4882 39.4146 79.4993 38.4255 79.4993 37.2073C79.4993 35.9889 80.4882 35 81.7066 35H103.292C104.511 35 105.499 35.9883 105.499 37.2073V59.7487ZM101.084 80.25C101.084 79.0319 102.074 78.0427 103.292 78.0427C104.51 78.0427 105.499 79.0319 105.499 80.25V102.792C105.499 104.011 104.511 104.999 103.292 104.999H81.7066C80.4882 104.999 79.4993 104.01 79.4993 102.792C79.4993 101.574 80.4882 100.584 81.7066 100.584H101.084V80.25ZM35.5 80.25C35.5 79.0319 36.4892 78.0427 37.7073 78.0427C38.9255 78.0427 39.9146 79.0319 39.9146 80.25V100.584H59.2927C60.5108 100.584 61.5 101.574 61.5 102.792C61.5 104.01 60.5108 104.999 59.2927 104.999H37.7073C36.4883 104.999 35.5 104.011 35.5 102.792V80.25Z" fill="var(--fill-0, #6580B9)"/>
<g id="Group">
<path id="Vector_2" fill-rule="evenodd" clip-rule="evenodd" d="M51.9 91.6832H88.0962C89.1104 91.6832 89.9801 91.2469 90.5841 90.4338C91.1881 89.621 91.3583 88.6583 91.0642 87.6904C88.3362 78.6421 79.9382 72.0507 69.9995 72.0507C60.0605 72.0507 51.66 78.6421 48.932 87.6904C48.6403 88.6583 48.8081 89.621 49.4121 90.4338C50.0158 91.2469 50.8882 91.6832 51.9 91.6832Z" fill="var(--fill-0, #8AC9FE)"/>
<path id="Vector_3" fill-rule="evenodd" clip-rule="evenodd" d="M88.096 91.6832C89.1103 91.6832 89.98 91.2469 90.5839 90.4338C91.1879 89.621 91.3582 88.6583 91.064 87.6904C88.3361 78.6421 79.9381 72.0507 69.9993 72.0507C68.9462 72.0507 67.9112 72.1255 66.8997 72.2673C75.4525 73.4753 82.426 79.5995 84.8648 87.6904C85.1589 88.6583 84.9912 89.621 84.3874 90.4338C83.7835 91.2469 82.911 91.6832 81.8995 91.6832H88.096Z" fill="var(--fill-0, #60B7FF)"/>
<path id="Vector_4" fill-rule="evenodd" clip-rule="evenodd" d="M69.9989 70.2289C76.1256 70.2289 81.1221 65.2323 81.1221 59.1054C81.1221 52.9784 76.1256 47.9821 69.9989 47.9821C63.8719 47.9821 58.8754 52.9784 58.8754 59.1054C58.8754 65.2323 63.8719 70.2289 69.9989 70.2289Z" fill="var(--fill-0, #F6DCCD)"/>
<path id="Vector_5" fill-rule="evenodd" clip-rule="evenodd" d="M69.9995 47.9821C76.1416 47.9821 81.1227 52.9629 81.1227 59.1054C81.1227 65.2505 76.1416 70.2289 69.9995 70.2289C69.4728 70.2289 68.954 70.1927 68.4483 70.1229C73.8576 69.3669 78.0231 64.7238 78.0231 59.1054C78.0231 53.4897 73.8576 48.8441 68.4483 48.0903C68.954 48.0208 69.4728 47.9821 69.9995 47.9821Z" fill="var(--fill-0, #F1CBBC)"/>
</g>
</g>
</g>
</svg>
