<svg preserveAspectRatio="none" width="100%" height="100%" overflow="visible" style="display: block;" viewBox="0 0 140 140" fill="none" xmlns="http://www.w3.org/2000/svg">
<g id="Group 5">
<circle id="Ellipse 1" cx="70" cy="70" r="70" fill="var(--fill-0, white)"/>
<g id="Group">
<path id="Vector" d="M96.8301 62.4641C95.9078 62.4641 95.1602 63.2117 95.1602 64.134V64.1359C95.1602 65.1904 94.3064 66.0415 93.2546 66.0415H46.7473C45.6956 66.0415 44.8398 65.1857 44.8398 64.134C44.8398 63.2117 44.0922 62.4641 43.1699 62.4641C42.2477 62.4641 41.5 63.2117 41.5 64.134V71.2887C41.5 74.1677 43.8275 76.5359 46.7473 76.5359H93.2527C96.125 76.5359 98.5 74.2151 98.5 71.2886V64.134C98.5 63.2117 97.7523 62.4641 96.8301 62.4641Z" fill="var(--fill-0, #4B9FFF)"/>
<path id="Vector_2" d="M98.5 64.134C98.5 63.2117 97.7523 62.4641 96.8301 62.4641C95.9078 62.4641 95.1602 63.2117 95.1602 64.134V64.1359C95.1602 65.1904 94.3064 66.0415 93.2546 66.0415H70V76.5359H93.2527C96.125 76.5359 98.5 74.2151 98.5 71.2886V64.134Z" fill="var(--fill-0, #4B9FFF)"/>
<path id="Vector_3" d="M93.2527 69.3813H46.7472C43.9097 69.3813 41.5 67.0925 41.5 64.134V46.2473C41.5 43.2889 43.9099 41 46.7472 41H93.2527C96.0903 41 98.5 43.2887 98.5 46.2473V64.134C98.5 67.0921 96.0905 69.3813 93.2527 69.3813Z" fill="var(--fill-0, #8EC3FF)"/>
<path id="Vector_4" d="M93.2527 69.3813C96.0904 69.3813 98.5 67.0921 98.5 64.134V46.2473C98.5 43.2887 96.0903 41 93.2527 41H70V69.3813H93.2527Z" fill="var(--fill-0, #71B0F8)"/>
<path id="Vector_5" d="M57.113 48.2403C56.2381 47.9488 55.2923 48.4217 55.0007 49.2965L53.0075 55.2758L51.0145 49.2965C50.7229 48.4217 49.7774 47.9489 48.9022 48.2403C48.0273 48.532 47.5544 49.4776 47.846 50.3527L51.4233 61.0847C51.6507 61.7666 52.2888 62.2266 53.0075 62.2266C53.7263 62.2266 54.3644 61.7666 54.5917 61.0847L58.169 50.3527C58.4608 49.4776 57.988 48.532 57.113 48.2403Z" fill="var(--fill-0, white)"/>
<path id="Vector_6" d="M80.732 48.1547H74.4717C73.5495 48.1547 72.8018 48.9024 72.8018 49.8246C72.8018 50.7469 73.5495 51.4946 74.4717 51.4946H75.9319V60.5567C75.9319 61.4789 76.6796 62.2266 77.6018 62.2266C78.5241 62.2266 79.2717 61.4789 79.2717 60.5567V51.4946H80.732C81.6543 51.4946 82.4019 50.7469 82.4019 49.8246C82.4019 48.9024 81.6544 48.1547 80.732 48.1547Z" fill="var(--fill-0, #FFF7F4)"/>
<path id="Vector_7" d="M90.5698 58.8868H87.768V56.8606H89.6755C90.5977 56.8606 91.3454 56.1129 91.3454 55.1907C91.3454 54.2684 90.5977 53.5207 89.6755 53.5207H87.768V51.4946H90.5698C91.492 51.4946 92.2397 50.7469 92.2397 49.8246C92.2397 48.9024 91.492 48.1547 90.5698 48.1547H86.0981C85.1758 48.1547 84.4281 48.9024 84.4281 49.8246V60.5567C84.4281 61.4789 85.1758 62.2266 86.0981 62.2266H90.5698C91.492 62.2266 92.2397 61.4789 92.2397 60.5567C92.2397 59.6344 91.492 58.8868 90.5698 58.8868Z" fill="var(--fill-0, #FFF7F4)"/>
<path id="Vector_8" d="M65.5283 48.1547C62.1418 48.1547 59.3866 51.3111 59.3866 55.1907C59.3866 59.0702 62.1418 62.2266 65.5283 62.2266C68.9148 62.2266 71.6699 59.0702 71.6699 55.1907C71.6699 51.3111 68.9148 48.1547 65.5283 48.1547ZM65.5283 58.8868C64.0095 58.8868 62.7265 57.1941 62.7265 55.1907C62.7265 53.1872 64.0095 51.4946 65.5283 51.4946C67.047 51.4946 68.3301 53.1872 68.3301 55.1907C68.3301 57.1941 67.047 58.8868 65.5283 58.8868Z" fill="var(--fill-0, white)"/>
<path id="Vector_9" d="M70 60.0062C71.0342 58.7464 71.6699 57.0524 71.6699 55.1907C71.6699 53.3289 71.0342 51.635 70 50.3752V60.0062Z" fill="var(--fill-0, #FFF7F4)"/>
<path id="Vector_10" d="M82.5207 98H68.645C66.7657 98 64.9989 97.268 63.6702 95.9389L57.3877 89.6564C55.8231 88.0929 55.3589 85.7611 56.2054 83.7162C57.0531 81.6715 59.0298 80.3508 61.2416 80.3508C62.5399 80.3508 63.7665 80.7922 64.7525 81.6037V64.134C64.7525 61.2594 67.0759 58.8868 69.9999 58.8868C72.8932 58.8868 75.2472 61.2407 75.2472 64.134V73.1961H82.5206C86.4003 73.1961 89.5566 76.3525 89.5566 80.232V90.9641C89.5567 94.8436 86.4003 98 82.5207 98Z" fill="var(--fill-0, #FACEB7)"/>
<path id="Vector_11" d="M82.5207 98C86.4004 98 89.5567 94.8436 89.5567 90.9641V80.232C89.5567 76.3524 86.4003 73.1961 82.5207 73.1961H75.2473V64.134C75.2473 61.2407 72.8933 58.8868 70 58.8868V98H82.5207Z" fill="var(--fill-0, #EEB1A1)"/>
</g>
</g>
</svg>
